<svg width="600" height="600" viewBox="0 0 600 600" fill="none" xmlns="http://www.w3.org/2000/svg">
<path id='1' d="M1009.13 543.23V603.3H555.13C555.13 603.3 559.22 591.76 578.6 589.09C597.98 586.42 626.39 582.19 640.9 578.2C645.9 576.83 649.72 575.65 653.48 574.74C660.71 572.98 667.6 572.26 681.48 573.28C702.61 574.86 738.36 587.02 754.87 589.6C771.38 592.18 791.19 592.97 808.48 588.16C825.77 583.35 860.61 575.92 887.78 575.16C896.903 574.859 905.881 572.794 914.22 569.08C915.461 568.661 916.66 568.125 917.8 567.48C929.8 561.69 939.88 553.99 949.8 548.99C970.32 538.66 997.51 538.99 1009 543.21L1009.13 543.23Z" fill="#011F3C"/>
<path id='2' d="M457.62 417.23C454.88 417.06 452.12 416.92 449.38 416.83C423.05 415.44 405.07 423.01 383.13 436.64C378.319 439.718 373.352 442.545 368.25 445.11C362.688 447.461 356.83 449.039 350.84 449.8C311.29 416.3 212.41 421.73 179.55 424L177.11 424.16C159.7 425.35 142.4 423 122.37 420.26C117.14 419.57 111.64 418.8 105.86 418.08L106.44 413.55C110.78 413.9 118.28 413.76 118.33 413.72H118.7C120 413.72 121.3 413.72 122.6 413.72C128.12 413.72 133.67 413.56 139.2 413.44H139.59C148.07 413.28 156.54 413.05 165.02 412.82L167.85 412.75H167.9C170.31 412.68 178.9 412.49 189.14 412.28C195.85 412.17 203.28 412 210.14 411.86C223.14 411.63 233.98 411.4 234.01 411.4C239.28 411.4 250.26 411.4 250.28 411.4H250.65C254.83 411.49 259.01 411.56 263.22 411.59C263.22 411.59 271.22 411.31 278.91 410.94C284.67 410.68 290.27 410.38 292.22 410.15C299.22 409.31 306.22 408.1 313.16 406.64C323.4 404.74 333.94 400.95 344.37 403.58C354.56 406.27 365.42 407.04 375.87 407.87C404.08 409.5 432.55 409.87 460.62 406.13C467.49 405.18 474.62 403.39 481.47 402.41L492.01 401.41C523.36 399.41 556.01 399.5 587.37 399.67C636.8 400.48 686.37 400.67 735.65 404.42C750.76 406.14 782.83 411 798.65 413.29C812.65 415.24 826.65 417.29 840.79 418.08C850.38 418.5 871.09 415.76 880.59 414.41C883.14 414.04 884.88 413.78 885.39 413.69H885.55C888.55 413.34 898.63 412.34 910.82 411.2C921.54 410.2 933.87 409.09 944.34 408.2C955.65 407.25 964.8 406.6 967.34 406.69C967.87 406.69 969.94 406.92 972.75 407.22C979.32 407.94 990.07 409.22 995.11 410.22L995.57 410.29C1000.13 411.118 1004.64 412.227 1009.06 413.61H1009.13V436.29C996.02 435.66 969.04 434.8 968.92 434.8C967.92 434.8 966.92 434.8 965.85 434.8C964.28 434.8 962.7 434.8 961.16 434.94C959.33 434.94 957.5 434.94 955.66 434.94H955.59C942.24 434.99 928.87 435.48 915.59 436.64C908.19 436.594 900.798 436.177 893.44 435.39C883.44 434.39 873.44 432.88 863.44 431.58C849.76 429.74 836.09 428.26 822.3 428.7C817.3 428.7 805.86 429.49 795.43 430.25C786.54 430.9 778.43 431.55 775.56 431.76C757.645 432.609 739.695 432.369 721.81 431.04C703.02 429.65 689.56 427.4 682.24 426.38C666.71 424.47 651.69 419.94 636.15 417.99C612.73 414.99 589.39 419.85 566.15 422.13C534.15 425.61 502.23 420.78 470.28 418.13C470.226 418.087 470.159 418.062 470.09 418.06C469.7 418.06 469.28 418.06 468.89 418.06C465.12 417.74 461.36 417.46 457.62 417.23Z" fill="#4D709E"/>
<path id='3' d="M948.2 360.55L912 353.1C911.18 352.91 910.4 352.75 909.68 352.61C909.54 352.56 897.9 350.22 892.19 349.26C879.103 346.995 865.904 345.43 852.65 344.57H852.23C826.02 343.04 799.64 344.83 774.23 351.77C772.73 352.16 770.31 352.77 768.5 353.32L766 354C759.22 356 752.51 358.18 745.84 360.55C736.48 363.61 727.43 368.07 717.79 370.07C708.06 371.72 698.06 370.83 688.28 369.74C673.59 368.14 659 364.43 644.45 361.92C634.45 361.25 624.71 363.92 614.89 364.92C610.01 365.45 604.95 365.8 600.33 364.17C598.17 363.17 596.08 361.78 593.92 360.53C593.894 360.479 593.854 360.436 593.804 360.408C593.755 360.379 593.697 360.366 593.64 360.37C593.39 360.23 593.13 360.06 592.85 359.92C591.047 358.873 589.114 358.069 587.1 357.53C579.76 355.28 572.26 357.42 564.88 357.58C557.45 357.51 550.13 356.12 542.82 355.03C537.917 354.199 532.968 353.668 528 353.44C508.19 353.33 490.71 368.74 470.37 364.89C460.55 363.24 452.19 357.32 442.85 354.07C427.34 348.75 410.74 356.18 395.05 354.53C391.316 354.188 387.666 353.225 384.25 351.68C383.32 351.38 381.58 350.8 380.58 350.49C390.741 342.632 401.69 335.849 413.25 330.25C420.839 326.537 428.739 323.499 436.86 321.17L437.07 320.52C437.38 320.61 437.7 320.73 438.07 320.84C451.86 317.08 467.34 315.48 482.34 319.43C535.26 333.31 655.23 355.6 705.92 350.52C733.01 347.8 753.49 340.6 771.55 334.26C791.17 327.39 808.1 321.43 829 322.1C867.84 323.31 999.26 362.52 1009.1 365.47V370.35L983.66 366.28L982.43 366.09L950.43 361.01C950.36 361.01 949.57 360.85 948.25 360.59C948.23 360.55 948.23 360.55 948.2 360.55Z" fill="#9D8DAB"/>
<path id='4' d="M-191.78 284.16C-191.796 284.155 -191.814 284.155 -191.83 284.16C-203.18 285.9 -214.47 288.76 -222.59 292.03C-227.385 294.223 -232.378 295.958 -237.5 297.21C-238.29 297.42 -239.08 297.61 -239.87 297.77C-246.642 299.297 -253.506 300.376 -260.42 301C-268.42 301.65 -276.11 303.39 -286.77 301.72C-287.7 301.58 -288.65 301.41 -289.63 301.21C-292.81 300.56 -296.06 299.74 -299.38 300.21C-302.61 300.91 -305.53 302.35 -308.69 303.21C-317.33 305.7 -328.69 303.14 -337.23 300.96V253.32C-334.51 253.93 -325.87 255.21 -323.16 254.95C-322.83 254.95 -322.67 254.95 -322.48 254.88V254.93C-321.521 256.492 -319.988 257.616 -318.21 258.06C-315.4 258.71 -312.08 257.62 -308.29 254.79C-302.63 250.52 -298.89 243.43 -296.4 238.79C-294.64 235.45 -293.78 233.89 -292.9 233.89H-292.8C-292.2 233.99 -291.94 234.78 -291.8 235.45C-291.24 238.586 -290.952 241.765 -290.94 244.95C-290.73 250.54 -290.53 256.3 -288.6 258.41C-287.95 259.164 -287.09 259.706 -286.129 259.968C-285.169 260.23 -284.153 260.199 -283.21 259.88C-282.287 259.483 -281.51 258.808 -280.987 257.95C-280.464 257.092 -280.22 256.093 -280.29 255.09C-280.29 253.68 -280.45 251.82 -280.63 249.85C-281.12 244.58 -281.33 241.32 -280.08 240.67C-279.59 240.42 -278.99 240.58 -278.27 241.21C-276.704 242.678 -275.215 244.227 -273.81 245.85C-268.26 251.94 -258.97 262.13 -251.73 263.66C-242.93 265.54 -233.41 244.9 -232.18 242.11C-230.134 242.476 -228.22 243.372 -226.63 244.71C-223.86 246.62 -216.06 253.56 -213.25 255.86C-209.68 258.34 -205.87 263.17 -201.13 262.41C-198.37 261.62 -196.58 258.67 -193.42 258.51C-184.42 257.6 -183.28 271.32 -173.5 265.45C-165.4 260.71 -158.81 251.38 -148.5 251.73C-144.81 251.4 -140.93 251.17 -137.42 250.66C-136.96 253.14 -133.55 268.77 -122.84 269.14C-116.46 269.37 -111.42 261.32 -107.36 254.84C-104.78 250.7 -102.36 246.78 -100.36 246.48C-100.109 246.446 -99.8527 246.47 -99.6119 246.55C-99.371 246.629 -99.1515 246.763 -98.97 246.94C-96.49 249.06 -96.14 256.42 -95.79 263.52C-95.4 272.11 -94.95 280.98 -91.01 283.09C-90.6927 283.279 -90.3352 283.39 -89.9668 283.415C-89.5983 283.439 -89.2293 283.376 -88.89 283.23C-85.81 281.96 -83.46 274.34 -81.21 266.98C-79.47 261.32 -77.66 255.44 -76.05 255.05C-75.89 255 -75.64 254.98 -75.27 255.33C-73.43 257.14 -72.55 261.45 -71.62 266.01C-70.23 272.95 -68.79 280.12 -63.62 280.61C-59.23 281.03 -56.62 276.55 -54.03 272.23C-51.62 268.14 -49.36 264.23 -45.88 264.94C-45.5566 265.006 -45.2228 265 -44.9016 264.924C-44.5805 264.848 -44.2797 264.704 -44.02 264.5C-41.52 262.57 -40.94 254.93 -40.4 247.5C-39.91 241.12 -39.4 234.5 -37.68 233.85C-37.29 233.69 -36.76 233.9 -36.15 234.45C-33.06 237.29 -29.95 246.06 -26.93 254.54C-22.93 265.89 -19.09 276.64 -14.72 276.64H-14.56C-10.98 276.46 -10.01 272.93 -9.07996 269.52C-7.91996 265.31 -6.82998 261.34 -1.22998 262.8C4.00002 264.1 7.55002 269 10.71 273.22C14.14 277.84 17.09 281.84 21.13 280.54C23.1198 279.861 25.047 279.012 26.89 278C31.79 275.49 35.67 273.52 38.8 279.58C39.87 281.66 40.94 284.13 41.98 286.52C44.42 292.14 46.53 297.01 48.58 297.01H48.67C49.62 297.01 50.36 295.92 50.99 293.76C52.08 290.05 51.78 280.29 51.5 270.84C51.22 261.39 50.87 249.62 52.43 249.27C52.57 249.27 53.34 249.32 55.12 253.48C58.47 261.3 61.21 270.82 63.62 279.23C67 290.87 69 297.44 71.1 297.72C71.66 297.79 72.21 297.42 72.7 296.6C74.51 293.49 74.16 280.4 73.84 267.74C73.56 256.99 73.19 243.62 74.84 243.18C74.84 243.18 75.23 243.11 76.02 244.43C79.14 249.77 81.81 262.38 84.02 272.5C86.57 284.55 87.66 289.1 89.02 289.17C89.63 289.24 90.02 288.43 90.18 287.85C91.53 283.85 90.42 273.2 89.44 263.85C88.95 259.23 88.44 253.85 88.44 250.85C88.44 249.5 88.55 248.64 88.83 248.53C88.83 248.53 89.09 248.53 89.64 249.34C91.55 252.08 93.06 256.21 94.52 260.2C96.52 265.68 98.28 270.42 100.79 271.33C101.161 271.435 101.549 271.459 101.93 271.402C102.311 271.346 102.676 271.208 103 271C104.16 270.33 105.39 269.49 106.72 268.59C111.72 265.15 117.37 261.25 121.58 265.59C122.207 266.337 122.987 266.941 123.866 267.362C124.746 267.782 125.705 268.01 126.68 268.03C131.35 267.96 136.78 262.44 143.4 255.22C145.72 252.68 147.72 251.52 149.48 251.64C152.02 251.83 153.94 254.64 155.99 257.64C157.75 260.24 159.56 262.91 161.99 264.28C163.18 264.93 164.08 265.07 164.76 264.72C165.89 264.1 166.03 262.24 166.2 260.27C166.37 258.3 166.47 256.53 167.45 256.04C168.17 255.69 169.35 256.04 171 257.13L172.39 258.04C178.66 262.15 184.61 266.04 188.55 264.82C189.357 264.54 190.089 264.077 190.689 263.469C191.289 262.86 191.741 262.121 192.01 261.31C193.073 258.503 193.942 255.626 194.61 252.7C195.92 248 197.48 242 199 242C199.4 242 200.21 242.49 201.3 245.6C203.02 250.45 203.3 255.6 203.62 260.09C203.95 265.03 204.18 268.93 206.2 270.65C206.662 271.011 207.194 271.273 207.761 271.421C208.329 271.569 208.92 271.599 209.5 271.51C213.03 271.14 214.33 268.66 215.5 266.45C216.31 264.89 217.08 263.45 218.5 262.97C219.92 262.49 221.77 262.97 224.35 264.38C229.51 267.12 230.78 270.75 232.01 274.25C233.36 278.08 234.64 281.7 241.01 283.12C248.09 284.68 253.4 273.93 257.68 265.29C260.09 260.39 262.39 255.77 264.22 255.29C264.374 255.243 264.536 255.229 264.697 255.248C264.857 255.267 265.011 255.319 265.15 255.4C267.36 256.75 267.71 263.74 268.1 271.14C268.64 281.29 269.19 291.79 274.37 292.51C278.78 293.09 282.5 286.4 286.37 279.29C290.24 272.18 294.37 264.64 299.04 265.8C303.71 266.96 306.61 272.61 309.8 278.62C312.99 284.63 316.34 290.95 321.57 292.48C326.49 293.92 330.78 289.02 335.31 283.82C340.26 278.13 345.39 272.26 351.57 274.7C356.37 276.58 360.16 280.7 364.15 285.03C370.05 291.41 376.15 298.03 386.02 298.03H386.28C394.82 297.93 400.53 291.76 405.6 286.33C410.42 281.1 414.6 276.6 419.94 278.85C423.496 280.471 426.928 282.349 430.21 284.47C438.08 289.25 447.02 294.68 462.32 296.87C473.93 298.52 480.08 296.38 485 294.66C489.51 293.08 493.06 291.85 499 294.08C503.249 295.768 507.278 297.964 511 300.62C515.13 303.41 518.66 305.8 522.24 305.8C523.979 305.776 525.67 305.225 527.09 304.22C535 299 538.56 288.78 539 287.71C544.09 284.71 548.94 280.79 555.23 282.09C563.41 283.46 570.3 288.09 577.38 292.17C578.38 294.42 585.51 309.65 611.61 319.85C628.7 326.49 637.17 321.73 645.37 317.13C651.06 313.93 656.44 310.88 664.45 311.39C674.67 312 678.94 315.71 683.45 319.66C687.79 323.42 692.71 327.72 703.53 329.76C704.687 329.981 705.862 330.091 707.04 330.09C715.14 330.09 721.57 324.61 728.33 318.85C738.33 310.35 748.6 301.57 766.11 306.96C797.57 316.67 805.21 310.07 806.62 308.86C807.179 308.315 807.694 307.726 808.16 307.1C813.479 307.583 818.822 307.737 824.16 307.56C855.04 306.73 902.61 295.63 1009.16 312.97V365.47C999.32 362.47 867.9 323.31 829.06 322.1C808.16 321.43 791.23 327.39 771.61 334.26C753.47 340.6 733 347.8 705.9 350.52C655.21 355.6 535.24 333.31 482.32 319.43C467.32 315.48 451.84 317.08 438.05 320.84C437.72 320.73 437.4 320.61 437.05 320.52C414.14 312.58 402.32 318.78 390.87 324.77C383.67 328.53 376.87 332.08 367.58 332.08C353.33 332.08 346.87 326.08 340.05 319.78C335.15 315.25 330.05 310.56 321.87 307.61C302.18 300.55 264.66 324.61 263.08 325.67L262.94 326.3C256.85 324.88 250.89 322.68 244.85 321.47C233.73 319.34 222.47 321.77 211.3 321.84C199.99 322.7 189.15 319.94 178.75 315.67C143.83 301.34 115.75 305.67 80.67 316.06C69.81 311.56 58.5 308.24 47.29 304.75C34.82 300.9 22.35 296.91 9.51004 294.49C-6.4954 291.28 -22.7044 289.185 -39 288.22C-48.82 288.06 -58.46 290.54 -68.19 291.59C-81.07 293.1 -94.19 294.31 -107.08 292.12C-119.97 289.93 -132.41 285.92 -145.34 283.95C-158.295 282 -171.448 281.741 -184.47 283.18C-186.91 283.44 -189.34 283.76 -191.78 284.16Z" fill="#9B94B2"/>
<path id='5' d="M1009.13 247.5V313C902.58 295.66 855.01 306.76 824.13 307.59C818.792 307.767 813.449 307.614 808.13 307.13C798 306.13 788.25 303.23 781.13 295.47C775.69 290.11 769.73 284.33 761.93 282.8C754.19 280.61 745.93 283.86 740.66 289.6C736.43 293.38 733.46 299.03 728.21 301.35C726.428 301.976 724.52 302.152 722.653 301.864C720.787 301.577 719.02 300.833 717.51 299.7L712.73 296.43C711.132 295.32 709.461 294.318 707.73 293.43C698.38 290.66 688.39 291.82 678.78 291.8C671.05 292.06 663.32 292.48 655.61 292.99C636.52 294.26 616.86 295.99 597.84 298.12C594.055 298.738 590.173 298.302 586.62 296.86C583.589 295.6 580.652 294.126 577.83 292.45V292.45L577.41 292.22C570.33 288.11 563.41 283.51 555.26 282.14C548.97 280.84 544.12 284.72 539.03 287.76C538.954 287.789 538.883 287.829 538.82 287.88C537.291 288.843 535.665 289.644 533.97 290.27C522.59 294.36 511.17 287.95 502.39 280.96C496.15 276.45 491.02 270.14 483.61 267.35C476.18 264.96 468.33 264.82 460.61 264.29C452.9 264.13 445.08 262.34 437.46 264.22C429.85 265.82 422.56 268.49 415.17 270.67C409.76 272.04 403.89 274.46 398.39 272.53C381.97 263.31 375.39 246.36 352.6 253.72C345.47 255.95 337.83 259.72 330.31 257.32C319.44 252.98 313.66 241.14 303.07 236.15C282.22 226.44 245.37 251.15 223.62 240.53C220.21 238.86 218.02 235.26 214.12 233.89C204.12 230.2 195.73 238.89 186.05 238.89C180.05 239.37 175.14 235.61 171.96 230.81C170.77 229.3 169.77 227.51 167.87 226.53C165.8 225.77 163.76 226.63 162.02 227.37C160.313 228.234 158.515 228.905 156.66 229.37C150.81 230.37 145.86 225.84 140.01 225.45C136.06 225.08 132.28 226.45 128.52 227.45C117.52 230.45 106.06 234.33 94.5199 232.7C90.7099 232.17 87.0199 231.01 83.2099 230.24C75.532 228.75 67.5965 229.319 60.2099 231.89C52.9799 235.16 44.8099 233.44 37.6599 236.79C32.2499 239.02 27.5099 242.45 22.2899 244.94C20.5699 245.66 18.6699 246.45 16.9299 245.84C6.33987 241 -1.30013 231.43 -11.1001 225.35C-12.7446 224.243 -14.5783 223.446 -16.5101 223C-20.5701 221.84 -24.0701 224.86 -27.4601 226.26C-33.4601 227.63 -36.8701 220.4 -40.5401 216.85C-41.8601 215.44 -43.2101 213.85 -45.2501 213.25C-47.0203 212.618 -48.624 211.592 -49.9401 210.25C-54.7901 205.75 -64.3601 196.88 -69.5601 205.54C-71.6301 208.91 -72.7601 212.65 -74.4401 216.08C-75.6901 218.54 -77.1301 221.33 -79.9601 222.08C-82.7701 222.48 -86.0201 222.55 -88.2301 224.73C-92.2301 228.91 -94.8701 234.39 -100.51 236.62C-108.4 240.47 -117.46 240.36 -125.87 242.28C-128.54 243.68 -129.65 246.86 -131.74 248.71C-133.11 249.94 -135.11 250.2 -136.96 250.55C-137 250.54 -137.041 250.54 -137.08 250.55C-137.17 250.565 -137.261 250.565 -137.35 250.55V250.55C-140.86 251.06 -144.74 251.29 -148.43 251.62C-158.72 251.27 -165.31 260.62 -173.43 265.34C-183.21 271.21 -184.35 257.49 -193.35 258.4C-196.51 258.56 -198.35 261.51 -201.06 262.3C-205.8 263.06 -209.61 258.23 -213.18 255.75C-215.99 253.45 -223.79 246.51 -226.56 244.6C-228.151 243.263 -230.064 242.366 -232.11 242C-241.51 241 -249.96 251 -259.34 246.11C-267.72 241.26 -274.13 233.76 -281.79 227.91C-284.51 225.98 -287.6 223.27 -291.01 225.36C-301.01 232.36 -306.36 244.05 -315.39 252.03C-317.423 253.586 -319.845 254.551 -322.39 254.82V254.82C-322.58 254.82 -322.74 254.82 -323.07 254.89C-325.78 255.15 -334.42 253.89 -337.14 253.26V0.360107H-296.55C-299.66 1.82011 -311.16 7.72011 -314.94 17.3601C-319.33 28.5101 -316.87 34.5001 -288.31 35.5601C-268.18 36.3101 -253.16 36.5601 -245.31 38.7501C-242.04 39.7501 -240.04 40.9701 -239.46 42.8301C-237.46 49.0501 -261.78 58.1601 -289.66 72.9701C-317.54 87.7801 -313.51 105.31 -276.47 104.55C-247.71 103.97 -217.17 102.25 -205.03 101.55C-205.03 101.55 -274.38 123.28 -276.47 146.66C-278.56 170.04 -259.04 168.66 -232.36 167.93C-205.68 167.2 -125.85 166.49 -58.9401 179.63C7.96988 192.77 115 225 166.64 196.39C166.64 196.39 230.19 204.15 256.08 203.75C281.97 203.35 302.4 206.93 319.35 212.41C336.3 217.89 363.58 241.23 421.24 246.89C478.9 252.55 582.24 262.29 671.24 241.62C671.24 241.62 733.56 264.54 789.52 268.05C818.24 269.83 821.05 268.42 842.15 265.14C866.23 261.4 944.08 246.5 1009.09 247.5H1009.13Z" fill="#7D83AD"/>
<path id='6' d="M1009.08 100.87V104.75C1002.14 115.34 936.76 124.62 884.28 132.29C874.09 133.77 864.46 135.19 855.96 136.51C834.6 139.81 830.16 142.69 830.21 144.51C830.28 148.29 849.76 152.19 867.8 154.19C872.8 154.75 873.42 157 873.32 158.27C872.86 165.1 851.64 177.1 818.39 176.18C814.23 176.08 810.22 175.87 806.32 175.67C806.01 175.67 805.71 175.67 805.41 175.62C797.01 171.9 755.98 154.51 721.71 160.76C707.94 163.29 686.71 169.86 662.22 177.48C617.41 191.38 566.61 207.15 538.93 205.25C511 203.34 481 215.41 475.22 224.16C474.15 225.76 473.94 227.16 474.57 228.41C475.52 230.29 479 232.64 490.17 233.1C509.49 233.91 535.38 226.93 562.78 219.52C594.78 210.9 627.83 201.99 653.35 204.77C696.75 209.53 709.87 215.5 711.82 216.55L711.56 216.94V216.99C708.79 221.14 702.78 226.39 698.11 229.73C698.11 229.73 698.11 229.73 698.04 229.73C690.78 234.49 681.68 238.39 671.25 241.59C582.25 262.26 478.93 252.53 421.25 246.86C363.57 241.19 336.31 217.86 319.36 212.38C302.41 206.9 281.98 203.38 256.09 203.72C230.2 204.06 166.65 196.36 166.65 196.36C157.06 194.36 150.14 191.65 147.24 187.93C145.064 184.958 142.431 182.349 139.44 180.2C171.74 163.6 239.21 166.64 293.29 169.64C315.55 170.89 336.57 172.03 351.82 171.64C404.64 170.04 745.82 140.2 766 127.15C766.65 126.73 767 126.34 766.88 126.08C766.02 123.51 743.71 121.65 642.36 127.45C575.42 131.28 496.36 137.21 453.89 140.39L438 141.55C348.42 148.19 237.74 154.18 176.28 141.43C116.77 129.11 53.8499 144.38 44.8799 146.68C44.7199 146.68 44.5599 146.57 44.3999 146.52C44.3542 146.532 44.3062 146.532 44.2606 146.52C44.2149 146.508 44.1733 146.484 44.1399 146.45C31.6999 142.73 4.99991 144.41 -21.0001 146C-50.5401 147.84 -78.4001 149.58 -81.6001 142.82C-84.3701 136.92 -79.0501 130.89 -73.4301 124.52C-68.4301 118.84 -63.2401 112.96 -63.6301 106.9C-63.8401 103.72 -65.5601 100.77 -68.8601 97.9001C-77.5601 90.2801 -125.35 94.6501 -175.94 99.2701C-183.72 99.9901 -191.94 100.45 -199.69 101.13C-199.69 101.13 -201.69 101.27 -205.15 101.48C-217.29 102.22 -247.83 103.94 -276.59 104.48C-313.59 105.24 -317.64 87.7101 -289.78 72.9001C-261.92 58.0901 -237.64 49.0001 -239.61 42.8001C-240.19 40.9401 -242.19 39.6701 -245.46 38.7201C-244.37 38.2701 -233.46 34.1201 -195.99 28.5501C-173.37 25.2001 -144.99 26.5501 -117.46 27.8001C-96.0301 28.8001 -75.8101 29.7501 -58.8301 28.5501C-24.4701 26.1301 5.31992 5.00011 11.5399 0.360107H890.3C876.83 1.05011 851.2 3.28011 846.09 10.1101C845.955 10.249 845.864 10.424 845.826 10.614C845.789 10.8039 845.808 11.0006 845.88 11.1801C847.58 14.6801 871.07 15.4001 891.81 16.0501C917.18 16.8401 932.72 17.5401 934.25 20.5601C934.361 20.7811 934.407 21.0293 934.382 21.2755C934.358 21.5217 934.263 21.7558 934.11 21.9501C931.11 26.3601 870.54 27.4801 812 28.5701C785.44 29.0601 760.37 29.5201 741.35 30.2601C714.18 31.3301 709.87 32.6601 709.7 33.3501C712.33 36.5101 766.24 35.8101 818.37 35.1401C883.52 34.3001 950.9 33.4401 954.01 38.6501C954.109 38.809 954.162 38.9927 954.162 39.1801C954.162 39.3675 954.109 39.5512 954.01 39.7101C951.36 44.4701 918.95 46.6101 881.4 49.0701C835.66 52.0701 778.73 55.8301 778.92 65.6301C779.1 75.6301 852.57 74.7501 911.61 74.1001C963.39 73.5201 995.15 73.3601 995.76 77.4401C995.82 77.9664 995.669 78.4951 995.34 78.9101C992.16 83.1601 970.47 86.1301 949.48 89.0101C930.28 91.6501 910.41 94.3701 909.27 97.6401C909.2 97.8301 909.15 98.1501 909.57 98.6401C912.82 102.1 929.33 100.1 946.81 97.9601C971.31 94.9601 998.61 90.8801 1007.3 99.0801C1007.93 99.6416 1008.52 100.239 1009.08 100.87V100.87ZM587.78 74.9401C590.89 71.4101 591.87 68.5501 590.78 66.2301C587.04 58.2301 558.32 58.8001 522 59.5901C502.43 59.9801 480.23 60.4701 459.34 59.5901C391.52 56.5901 352.48 52.4101 304.63 42.8001C278.37 37.5301 245.89 45.9601 214.47 54.1101C188.42 60.8401 163.83 67.1801 142.38 66.5001C129.38 66.0901 112.38 64.3201 94.3799 62.5001C45.8599 57.5001 -14.5401 51.2201 -41.1701 66.5901C-49.1101 71.1901 -52.2701 76.2701 -50.5501 81.6801C-45.3001 98.1501 5.26992 112.8 44.4499 109.17C73.0099 106.55 128.01 110.4 191.68 114.89C240.11 118.3 295.02 122.15 346.75 123.66C353.32 123.87 359.94 123.96 366.56 123.96C414.25 123.96 462.43 118.96 504.11 109.59C545.79 100.22 577.06 87.2201 587.78 74.9401Z" fill="#E99DA1"/>
<path id='7' d="M818.18 466C813.82 464.3 809.91 462 805.57 460.75C786.81 454.5 766.7 451.63 746.97 453.95C740.019 454.887 733.128 456.222 726.33 457.95L725.96 457.68C695.52 435.06 653.12 442.33 624.96 447.13C621.96 447.67 619.02 448.13 616.32 448.6C603.65 450.6 584.47 447.53 562.25 443.98C536.25 439.8 503.83 434.62 470.44 435.9C449.31 436.71 433.99 442.77 424.91 453.9C414.55 466.63 415.91 482.44 416.2 485.23C407.2 486.71 399.76 488.85 390.01 490.77C389.62 487.15 387.3 458.77 405.48 438.95C417.29 426.08 434.1 417.89 457.58 417.22C461.32 417.45 465.08 417.73 468.82 418.03C469.21 418.03 469.63 418.03 470.02 418.03C470.089 418.032 470.156 418.057 470.21 418.1C502.16 420.75 534.04 425.58 566.08 422.1C589.32 419.82 612.66 414.97 636.08 417.96C651.62 419.91 666.64 424.44 682.17 426.35C689.49 427.35 702.95 429.62 721.74 431.01C725.2 431.9 802.38 451.42 833.23 451.42C834.9 451.42 836.44 451.35 837.83 451.24C865.14 448.89 893.07 435.47 893.32 435.36C900.678 436.146 908.07 436.564 915.47 436.61C928.78 435.45 942.15 434.96 955.47 434.91C923.52 438.05 899.54 455.67 897.47 457.16C890.04 453.33 882.05 451.75 872.85 455.02C863.85 458.97 857.69 468.14 847.75 470.55C837.56 473.09 827.75 469.67 818.08 465.98L818.18 466Z" fill="#135587"/>
<path id='8' d="M672.51 543.81C675.71 544.67 677.71 545.18 677.71 545.18C677.71 545.18 751.94 556.18 789.25 552.33C802.07 551.24 814.84 549.46 827.65 548.69C846.81 547.46 866.65 550.62 883.05 560.99C888.56 564.22 893.8 568.26 900.14 569.99C904.841 571.03 909.739 570.732 914.28 569.13C905.942 572.844 896.963 574.909 887.84 575.21C860.67 575.95 825.84 583.38 808.54 588.21C791.24 593.04 771.42 592.21 754.93 589.65C738.44 587.09 702.67 574.91 681.54 573.33C667.63 572.33 660.74 573.03 653.54 574.79V574.67C652.33 573.67 628.14 555.4 564.92 549.39C528.3 545.88 502.13 554.39 476.8 562.58C457.07 568.96 436.63 575.58 411.46 576.37C356.94 578 342.59 600.84 341.34 603V603.3H19.6499C33.2099 597.94 134.79 558.77 233.98 553.84C339.13 548.62 395.53 545.04 428.62 526.77C464 507.24 504.47 497.77 591.06 515.93C601.97 519.93 610.7 523.4 616.27 525.8C619.71 527.28 621.94 528.33 622.73 528.8C623.292 529.134 623.881 529.422 624.49 529.66C627.56 530.96 633.29 532.8 639.88 534.77C651.22 538.15 665.1 541.86 672.51 543.81Z" fill="#012445"/>
<path id='9' d="M885.35 413.72C884.84 413.81 883.1 414.07 880.55 414.44C870.63 412.67 826.03 404.36 761.23 396.91C682.12 387.8 594.56 385.91 546.69 388.08C535.15 388.59 524.69 389.34 514.62 390.03C478 392.59 446.31 394.82 385 385C344.69 378.52 317.9 386 302.53 393.43C288.22 400.33 280.72 408.8 278.91 411.01C271.23 411.38 263.24 411.66 263.22 411.66C263.42 410.29 264.49 403.76 271.3 396.66C278.3 389.42 292.68 379.53 321.75 373.58C323.19 373.28 324.63 373.03 326.09 372.77C360.32 366.92 400.9 372.77 433.78 377.53C454 380.46 471.49 382.99 481.84 381.83C507.62 378.92 583.45 362.6 592.69 360.6L592.87 359.95C593.15 360.09 593.41 360.26 593.66 360.4C593.717 360.396 593.774 360.409 593.824 360.438C593.874 360.466 593.914 360.509 593.94 360.56C596.1 361.81 598.19 363.18 600.35 364.2C604.97 365.83 610.03 365.48 614.91 364.95C624.73 363.9 634.48 361.26 644.47 361.95C659.02 364.46 673.61 368.17 688.3 369.77C698.08 370.86 708.08 371.77 717.81 370.1C727.45 368.1 736.5 363.64 745.86 360.58C752.5 358.18 759.21 356 766 354L768.48 353.3C784.206 354.352 799.778 357.054 814.94 361.36C838.82 368.12 870.24 383.12 885.35 413.72Z" fill="#687CA8"/>
<path id='10' d="M880.55 414.42C871.05 415.77 850.34 418.51 840.75 418.09C826.61 417.27 812.61 415.25 798.61 413.3C782.8 411.01 750.73 406.15 735.61 404.43C686.31 400.72 636.76 400.49 587.33 399.68C555.96 399.51 523.33 399.4 491.97 401.42L481.43 402.42C474.6 403.42 467.43 405.19 460.58 406.14C432.51 409.85 404.04 409.51 375.83 407.88C365.38 407.05 354.52 406.28 344.33 403.59C333.9 400.96 323.33 404.75 313.12 406.65C306.2 408.11 299.21 409.32 292.18 410.16C290.23 410.39 284.63 410.69 278.87 410.95C280.68 408.74 288.18 400.27 302.49 393.37C317.87 386 344.66 378.47 385 385C446.34 394.87 478 392.64 514.65 390.06C524.75 389.37 535.18 388.62 546.72 388.11C594.59 385.98 682.15 387.83 761.26 396.94C826 404.34 870.63 412.65 880.55 414.42Z" fill="#4D709E"/>
<path id='11' d="M818.18 466C759.51 454.6 729.07 471.57 700.58 491.52C675.34 509.19 624.37 523.44 616.27 525.77C610.7 523.37 601.97 519.87 591.06 515.9C587.993 514.78 584.763 513.627 581.37 512.44C581.37 512.44 596.79 511.16 620.24 503.08C636.36 497.477 651.891 490.306 666.61 481.67C667.79 480.98 669.02 480.3 670.3 479.61C677.848 475.675 685.607 472.156 693.54 469.07C702.09 465.68 710.26 462.84 716.25 460.87C722.08 458.94 725.82 457.87 725.82 457.87L725.96 457.69L726.33 457.96C733.138 456.245 740.04 454.923 747 454C766.73 451.68 786.84 454.55 805.6 460.8C809.91 462 813.82 464.31 818.18 466Z" fill="#245082"/>
<path id='12' d="M808.13 307.1C807.664 307.726 807.149 308.315 806.59 308.86C805.18 310.07 797.54 316.67 766.08 306.96C748.57 301.57 738.26 310.35 728.3 318.85C721.54 324.61 715.11 330.09 707.01 330.09C705.832 330.091 704.657 329.981 703.5 329.76C692.68 327.76 687.76 323.42 683.42 319.66C678.89 315.66 674.62 312 664.42 311.39C656.42 310.88 651.03 313.93 645.34 317.13C637.14 321.73 628.67 326.49 611.58 319.85C585.48 309.65 578.33 294.42 577.35 292.17L577.77 292.4C580.592 294.076 583.53 295.55 586.56 296.81C590.114 298.252 593.995 298.688 597.78 298.07C616.78 295.98 636.46 294.21 655.55 292.94C663.26 292.43 670.99 292.01 678.72 291.75C688.33 291.75 698.32 290.61 707.67 293.38C709.402 294.268 711.072 295.27 712.67 296.38L717.45 299.65C718.961 300.783 720.727 301.527 722.594 301.814C724.46 302.102 726.368 301.925 728.15 301.3C733.4 298.98 736.37 293.3 740.6 289.55C745.91 283.81 754.13 280.55 761.87 282.75C769.67 284.28 775.63 290.06 781.07 295.42C788.25 303.2 798 306.1 808.13 307.1Z" fill="#C5A6BD"/>
<path id='13' d="M805.41 175.66C804.34 175.66 803.3 175.54 802.28 175.5C767.08 173.59 741.58 172.2 711.82 216.55C709.82 215.5 696.75 209.55 653.35 204.77C627.83 201.99 594.75 210.9 562.78 219.52C535.38 226.93 509.49 233.91 490.17 233.1C479 232.64 475.52 230.29 474.57 228.41C473.94 227.2 474.15 225.76 475.22 224.16C481 215.41 510.98 203.34 538.93 205.29C566.61 207.19 617.41 191.42 662.22 177.52C686.74 169.9 707.94 163.33 721.71 160.8C756 154.55 797 171.94 805.41 175.66Z" fill="#D190AD"/>
<path id='14' d="M766.87 126.06C766.96 126.32 766.64 126.71 765.99 127.13C745.85 140.18 404.63 170 351.81 171.62C336.56 172.06 315.54 170.92 293.28 169.62C239.2 166.62 171.73 163.62 139.43 180.18C133.35 176.07 127.54 176.68 119.02 177.56C109.442 178.775 99.7524 178.835 90.1599 177.74C66.7599 175.03 63.4399 169.29 58.8399 161.38C56.4395 156.868 53.3451 152.762 49.6699 149.21C48.2692 148.028 46.638 147.149 44.8799 146.63C53.8799 144.33 116.77 129.06 176.28 141.38C237.74 154.13 348.42 148.14 438 141.5L453.88 140.32C496.35 137.14 575.41 131.21 642.35 127.38C743.7 121.63 766 123.49 766.87 126.06Z" fill="#D190AD"/>
<path id='15' d="M726 457.7L725.86 457.88C725.86 457.88 722.12 458.97 716.29 460.88C704.05 453.64 674.85 456.63 648.91 459.63C638.18 460.86 628.04 462.02 620.12 462.3C609.95 462.67 598.78 461.23 585.83 459.53C564.21 456.75 537.3 453.26 501.91 456.61C449.37 461.61 439.41 481.08 438.43 483.31C431.009 483.382 423.604 484.02 416.28 485.22C415.96 482.43 414.63 466.62 424.99 453.89C434.07 442.75 449.39 436.69 470.52 435.89C503.91 434.61 536.3 439.79 562.33 443.97C584.55 447.52 603.73 450.61 616.4 448.59C619.1 448.15 622 447.66 625.04 447.12C653.12 442.35 695.52 435.08 726 457.7Z" fill="#135587"/>
<path id='16' d="M716.25 460.9C710.25 462.9 702.09 465.71 693.54 469.1L693.4 468.72C628.76 479.72 607.63 476.48 583.16 472.79C570.07 470.79 556.55 468.79 535.16 468.68H533.2C495.37 468.68 481.09 474.92 475.8 480.22C474.424 481.595 473.458 483.327 473.01 485.22C467.28 484.55 461.64 484.04 456.16 483.74C449.4 483.39 443.57 483.27 438.39 483.34C439.39 481.11 449.33 461.61 501.87 456.64C537.26 453.29 564.17 456.78 585.79 459.56C598.79 461.26 609.91 462.7 620.08 462.33C628 462.05 638.14 460.89 648.87 459.66C674.81 456.65 704 453.66 716.25 460.9Z" fill="#355C8B"/>
<path id='17' d="M693.4 468.72L693.54 469.1C685.606 472.186 677.848 475.705 670.3 479.64C658.51 482.64 614.95 492.22 582.56 485.44C548.94 478.44 511 488.25 503.34 490.32C493.14 488.2 482.93 486.44 473.01 485.26C473.458 483.367 474.424 481.636 475.8 480.26C481.09 474.96 495.37 468.72 533.2 468.72H535.15C556.55 468.83 570.07 470.88 583.15 472.83C607.63 476.48 628.76 479.68 693.4 468.72Z" fill="#355C8B"/>
<path id='18' d="M670.3 479.64C669.02 480.33 667.79 481.01 666.61 481.7C651.89 490.336 636.359 497.507 620.24 503.11V503.11C590.08 491.22 535.63 497.93 535.1 498C524.74 495.19 514.04 492.55 503.34 490.32C511 488.25 548.94 478.45 582.56 485.44C615 492.22 658.51 482.66 670.3 479.64Z" fill="#355C8B"/>
<path id='19' d="M653.49 574.62V574.74C649.73 575.65 645.88 576.83 640.91 578.2C626.4 582.2 598.02 586.4 578.61 589.09C559.2 591.78 555.14 603.3 555.14 603.3H341.34V603C342.59 600.84 356.94 578 411.41 576.32C436.58 575.53 457.02 568.91 476.75 562.53C502.08 554.31 528.25 545.83 564.87 549.34C628.09 555.35 652.28 573.65 653.49 574.62Z" fill="#012B4E"/>
<path id='20' d="M620.24 503.09C596.79 511.17 581.37 512.45 581.37 512.45C567.84 507.71 551.91 502.6 535.1 497.98C535.63 497.91 590.08 491.2 620.24 503.09Z" fill="#55648A"/>
<path id='21' d="M592.84 359.94L592.66 360.59C583.42 362.59 507.59 378.91 481.81 381.82C471.46 382.98 453.97 380.45 433.75 377.52C400.87 372.78 360.29 366.91 326.06 372.76L325.06 366.59C334.41 365.05 343.61 363.96 352.25 362.94C369.03 360.94 384.66 358.57 395.04 354.53C410.73 356.18 427.33 348.75 442.84 354.07C452.18 357.32 460.54 363.24 470.36 364.89C490.7 368.74 508.18 353.33 527.99 353.44C532.948 353.676 537.887 354.214 542.78 355.05C550.09 356.14 557.41 357.53 564.84 357.6C572.22 357.44 579.72 355.3 587.06 357.55C589.084 358.087 591.028 358.891 592.84 359.94Z" fill="#687CA8"/>
<path id='22' d="M590.78 66.2301C591.87 68.5501 590.89 71.4101 587.78 74.9401C577.06 87.2201 545.78 100.15 504.06 109.53C462.34 118.91 414.2 123.9 366.51 123.9C359.89 123.9 353.27 123.81 346.7 123.6C294.97 122.09 240.06 118.24 191.63 114.83C128 110.34 73 106.49 44.4 109.11C5.25005 112.74 -45.32 98.1101 -50.6 81.6201C-52.32 76.2101 -49.16 71.1301 -41.22 66.5301C-14.59 51.1601 45.78 57.4101 94.33 62.4401C112.33 64.3001 129.33 66.0701 142.33 66.4401C163.78 67.1201 188.33 60.7801 214.42 54.0501C245.84 45.9001 278.32 37.4701 304.58 42.7401C352.43 52.3501 391.47 56.5801 459.29 59.5301C480.18 60.4301 502.38 59.9401 521.95 59.5301C558.32 58.8001 587 58.2001 590.78 66.2301ZM519.78 83.6401C519.87 82.7101 518.78 82.0201 516.27 81.5101C507.27 79.6501 486.81 80.0201 460.9 80.4601C410.65 81.3401 341.81 82.5301 312.44 67.3201C287.71 54.5301 271.78 59.9601 251.63 66.8601C235.76 72.2901 216 79.0701 186.49 78.3501C174.07 78.0501 163.49 77.7201 154.2 77.4401C114.2 76.2401 97.68 75.7301 60.91 81.5101C54.5 82.5101 53.71 84.8001 53.8 86.0801C54.2 90.9301 67.29 96.3901 84.26 96.3901C96.34 96.3901 144.26 99.0601 194.92 101.87C248.72 104.87 309.67 108.23 338.76 109.04C340.71 109.04 342.76 109.11 344.85 109.11C373.06 109.11 415.96 104.45 448.22 99.8301C480.91 95.1601 519.26 88.1201 519.8 83.6401H519.78Z" fill="#FFD6CB"/>
<path id='23' d="M503.34 490.32C514.04 492.55 524.74 495.19 535.1 498C551.91 502.62 567.84 507.73 581.37 512.47C584.757 513.65 587.987 514.803 591.06 515.93C504.47 497.77 464 507.24 428.62 526.77C395.53 545 339.13 548.62 234 553.84C134.81 558.77 33.23 597.94 19.67 603.3H-185.72V603C-185.72 603 -136.2 571.21 -97.56 563.94C-96.63 563.76 -95.73 563.6 -94.82 563.46C-60.13 557.91 -47.9 555 -45.6 554.46C-19.18 552.58 140.4 541 186.4 526.21C191.6 524.54 196.57 522.91 201.4 521.33C241.1 508.33 270.5 498.72 332 495.47C333.33 495.47 334.63 495.47 335.9 495.47C346.31 495.47 355.04 495.05 362.54 494.47C371.783 493.827 380.977 492.615 390.07 490.84C399.82 488.92 407.28 486.78 416.26 485.3C423.584 484.1 430.989 483.462 438.41 483.39C443.59 483.32 449.41 483.39 456.18 483.79C461.66 484.09 467.3 484.6 473.03 485.27C482.93 486.44 493.14 488.2 503.34 490.32Z" fill="#011F3C"/>
<path id='24' d="M538.74 287.83C538.803 287.779 538.874 287.738 538.95 287.71C538.56 288.78 534.95 298.95 527.09 304.22C525.67 305.225 523.979 305.776 522.24 305.8C518.66 305.8 515.13 303.41 511 300.62C507.323 297.946 503.338 295.723 499.13 294C493.19 291.77 489.64 293 485.13 294.58C480.21 296.3 474.06 298.44 462.45 296.79C447.15 294.6 438.21 289.17 430.34 284.39C427.058 282.269 423.625 280.391 420.07 278.77C414.71 276.52 410.55 281.02 405.73 286.25C400.66 291.68 394.95 297.85 386.41 297.95H386.15C376.26 297.95 370.15 291.35 364.28 284.95C360.28 280.61 356.5 276.5 351.7 274.62C345.52 272.18 340.39 278.05 335.44 283.74C330.91 288.94 326.62 293.84 321.7 292.4C316.47 290.87 313.15 284.6 309.93 278.54C306.71 272.48 303.75 266.88 299.17 265.72C294.59 264.56 290.44 272.02 286.5 279.21C282.56 286.4 278.88 293.01 274.5 292.43C269.32 291.71 268.77 281.21 268.23 271.06C267.84 263.66 267.49 256.67 265.28 255.32C265.141 255.239 264.986 255.187 264.826 255.168C264.666 255.149 264.504 255.163 264.35 255.21C262.52 255.74 260.22 260.36 257.81 265.21C253.53 273.85 248.22 284.6 241.14 283.04C234.73 281.62 233.45 278.04 232.14 274.17C230.91 270.67 229.64 267.04 224.48 264.3C221.9 262.93 219.98 262.47 218.63 262.89C217.28 263.31 216.4 264.81 215.63 266.37C214.47 268.58 213.17 271.06 209.63 271.43C209.05 271.519 208.458 271.489 207.891 271.341C207.323 271.193 206.792 270.931 206.33 270.57C204.33 268.85 204.08 264.95 203.75 260.01C203.47 255.5 203.15 250.37 201.43 245.52C200.34 242.41 199.53 241.92 199.13 241.92C197.6 241.99 196.04 247.92 194.76 252.72C194.092 255.646 193.223 258.523 192.16 261.33C191.891 262.141 191.439 262.88 190.839 263.489C190.239 264.097 189.507 264.56 188.7 264.84C184.76 266.05 178.81 262.17 172.54 258.06L171 257.2C169.35 256.11 168.17 255.76 167.45 256.11C166.45 256.6 166.33 258.5 166.2 260.34C166.07 262.18 165.89 264.17 164.76 264.79C164.08 265.14 163.18 265 161.99 264.35C159.53 262.98 157.72 260.35 155.99 257.71C153.94 254.71 151.99 251.89 149.48 251.71C147.72 251.59 145.72 252.71 143.4 255.29C136.78 262.51 131.35 268.03 126.68 268.1C125.705 268.08 124.746 267.852 123.866 267.432C122.986 267.011 122.207 266.407 121.58 265.66C117.37 261.3 111.71 265.2 106.72 268.66C105.39 269.56 104.16 270.4 103 271.07C102.657 271.283 102.27 271.417 101.869 271.462C101.468 271.507 101.062 271.462 100.68 271.33C98.1698 270.42 96.4299 265.68 94.4099 260.2C92.9499 256.2 91.4098 252.08 89.5298 249.34C88.9798 248.53 88.7398 248.53 88.7198 248.53C88.4398 248.64 88.3298 249.53 88.3298 250.85C88.3298 253.85 88.8798 259.25 89.3298 263.85C90.3298 273.21 91.4199 283.85 90.0699 287.85C89.8699 288.43 89.5199 289.24 88.9099 289.17C87.5199 289.1 86.4299 284.55 83.9099 272.5C81.7499 262.38 79.0799 249.77 75.9099 244.43C75.1199 243.11 74.7499 243.16 74.7299 243.18C73.1299 243.62 73.4999 256.99 73.7299 267.74C74.0499 280.4 74.3998 293.49 72.5898 296.6C72.0998 297.42 71.5898 297.79 70.9898 297.72C68.8498 297.44 66.8598 290.87 63.5098 279.24C61.0998 270.83 58.3598 261.31 55.0098 253.49C53.2298 249.33 52.4599 249.26 52.3199 249.28C50.7599 249.63 51.1098 261.4 51.3898 270.85C51.6698 280.3 51.9699 290.06 50.8799 293.77C50.2499 295.93 49.5098 296.98 48.5598 297.02H48.4698C46.4698 297.02 44.3098 292.15 41.8698 286.53C40.8698 284.14 39.7598 281.67 38.6898 279.59C35.5598 273.53 31.6898 275.5 26.7798 278.01C24.9365 279.018 23.0093 279.865 21.0199 280.54C17.0199 281.84 14.0199 277.84 10.5999 273.22C7.54985 269 3.99985 264.1 -1.18015 262.77C-6.78015 261.31 -7.87015 265.28 -9.03015 269.49C-9.96015 272.9 -10.9302 276.43 -14.5102 276.61H-14.6702C-19.0402 276.61 -22.8401 265.86 -26.8801 254.51C-29.8801 246.03 -33.0102 237.26 -36.1002 234.42C-36.7102 233.87 -37.2402 233.66 -37.6302 233.82C-39.3802 234.49 -39.8602 241.09 -40.3502 247.47C-40.8902 254.88 -41.4702 262.47 -43.9702 264.47C-44.2299 264.674 -44.5307 264.818 -44.8518 264.894C-45.173 264.97 -45.5068 264.976 -45.8302 264.91C-49.3102 264.23 -51.5701 268.11 -53.9801 272.2C-56.5301 276.52 -59.1802 281 -63.5702 280.58C-68.7502 280.09 -70.1902 272.92 -71.5702 265.98C-72.5002 261.42 -73.3802 257.11 -75.2202 255.3C-75.5902 254.95 -75.8402 254.97 -76.0002 255.02C-77.6102 255.41 -79.4202 261.29 -81.1602 266.95C-83.4102 274.31 -85.7601 281.95 -88.8401 283.2C-89.1896 283.344 -89.5686 283.4 -89.9447 283.365C-90.3209 283.331 -90.683 283.205 -91.0002 283C-94.9402 280.89 -95.3902 272 -95.7802 263.43C-96.1302 256.33 -96.4802 248.97 -98.9602 246.85C-99.1417 246.673 -99.3612 246.539 -99.6021 246.46C-99.8429 246.38 -100.099 246.356 -100.35 246.39C-102.35 246.69 -104.79 250.61 -107.35 254.75C-111.41 261.23 -116.45 269.28 -122.83 269.05C-133.54 268.68 -136.95 253.05 -137.41 250.57C-137.321 250.585 -137.23 250.585 -137.14 250.57V250.57C-137.101 250.56 -137.06 250.56 -137.02 250.57C-135.17 250.22 -133.17 249.96 -131.8 248.73C-129.71 246.88 -128.6 243.73 -125.93 242.3C-117.52 240.38 -108.46 240.49 -100.57 236.64C-94.9302 234.41 -92.2802 228.93 -88.2902 224.75C-86.0802 222.57 -82.8301 222.5 -80.0201 222.1C-77.1901 221.36 -75.7502 218.57 -74.5002 216.1C-72.8202 212.67 -71.6902 208.93 -69.6202 205.56C-64.4202 196.9 -54.8502 205.77 -50.0002 210.27C-48.684 211.612 -47.0804 212.638 -45.3102 213.27C-43.3102 213.9 -41.9202 215.46 -40.6002 216.87C-36.9302 220.42 -33.5202 227.65 -27.5202 226.28C-24.1302 224.88 -20.6302 221.86 -16.5202 223.02C-14.5897 223.46 -12.7561 224.25 -11.1102 225.35C-1.31015 231.43 6.32985 240.95 16.8298 245.73C18.5698 246.34 20.4698 245.55 22.1898 244.83C27.4098 242.34 32.1898 238.91 37.5598 236.68C44.7098 233.33 52.8798 235.05 60.1098 231.78C67.4964 229.209 75.4319 228.64 83.1098 230.13C86.9198 230.9 90.6098 232.06 94.4198 232.59C105.93 234.22 117.36 230.32 128.42 227.34C132.18 226.34 135.96 225 139.91 225.34C145.76 225.73 150.71 230.22 156.56 229.26C158.415 228.795 160.213 228.124 161.92 227.26C163.66 226.52 165.7 225.66 167.77 226.42C169.67 227.42 170.67 229.19 171.86 230.7C175.04 235.5 179.96 239.26 185.95 238.78C195.63 238.78 204.06 230.09 214.02 233.78C217.92 235.15 220.11 238.78 223.52 240.42C245.27 250.99 282.12 226.33 302.97 236.04C313.56 241.04 319.34 252.87 330.21 257.21C337.73 259.58 345.37 255.84 352.5 253.61C375.3 246.25 381.87 263.2 398.29 272.42C403.79 274.35 409.66 271.93 415.07 270.56C422.46 268.38 429.75 265.71 437.36 264.11C444.98 262.23 452.8 264.02 460.51 264.18C468.24 264.71 476.09 264.85 483.51 267.24C490.92 270.03 496.05 276.34 502.29 280.85C511.07 287.85 522.49 294.25 533.87 290.16C535.57 289.554 537.202 288.774 538.74 287.83V287.83Z" fill="#C5A6BD"/>
<path id='25' d="M516.29 81.5102C518.78 82.0202 519.89 82.7102 519.8 83.6402C519.26 88.1202 480.91 95.1602 448.22 99.8302C415.96 104.45 373.06 109.11 344.85 109.11C342.73 109.11 340.71 109.11 338.76 109.04C309.67 108.23 248.76 104.84 194.92 101.87C144.24 99.0602 96.3398 96.3902 84.2598 96.3902C67.2598 96.3902 54.1998 90.9302 53.7998 86.0802C53.7098 84.8002 54.4998 82.5302 60.9098 81.5102C97.6798 75.7302 114.22 76.2402 154.2 77.4402C163.53 77.7202 174.07 78.0502 186.49 78.3502C216.01 79.0702 235.76 72.2902 251.65 66.8602C271.8 59.9602 287.73 54.5302 312.46 67.3202C341.83 82.5302 410.67 81.3202 460.92 80.4602C486.83 80.0002 507.26 79.6502 516.29 81.5102Z" fill="#D190AD"/>
<path id='26' d="M449.38 416.83C452.12 416.92 454.88 417.06 457.62 417.23C434.14 417.9 417.33 426.09 405.52 438.96C387.34 458.79 389.66 487.16 390.05 490.78C380.957 492.555 371.763 493.767 362.52 494.41C360.63 490.02 348.52 459.7 368.25 445.09C373.352 442.525 378.319 439.697 383.13 436.62C405.07 423 423.05 415.44 449.38 416.83Z" fill="#2D5A8E"/>
<path id='27' d="M437.09 320.52L436.88 321.17C428.759 323.499 420.859 326.537 413.27 330.25C401.709 335.849 390.761 342.632 380.6 350.49C367.99 346.49 351.39 341.79 338.55 345.08C329.602 338.511 320.165 332.637 310.32 327.51C305.32 325.02 299.71 322.98 294.02 323.86C288.37 324.35 283.02 326.35 277.58 327.28C272.805 327.884 267.959 327.575 263.3 326.37L263 326.3L263.14 325.67C264.72 324.67 302.24 300.55 321.93 307.61C330.15 310.56 335.21 315.25 340.11 319.78C346.93 326.09 353.39 332.08 367.64 332.08C376.93 332.08 383.73 328.53 390.93 324.77C402.36 318.78 414.18 312.58 437.09 320.52Z" fill="#7182AE"/>
<path id='28' d="M384.27 351.68C387.686 353.225 391.336 354.188 395.07 354.53C384.69 358.53 369.07 360.94 352.28 362.94C343.64 363.94 334.44 365.05 325.09 366.59C313.857 368.304 302.767 370.848 291.91 374.2C256.67 385.46 251.26 408.38 250.67 411.42H250.3C250.3 411.42 239.3 411.42 234.03 411.42C234.26 408.96 235.86 392.1 250.14 384.35C262.86 377.45 274.96 366.35 278.65 363.08L279.81 362.73C279.871 362.685 279.944 362.66 280.02 362.66C282.886 361.776 285.62 360.511 288.15 358.9C291.01 356.44 293.4 353.49 297.37 352.77C307.03 350.54 317.31 353.14 326.81 350.05C329.12 349.219 331.35 348.178 333.47 346.94C335.108 346.155 336.82 345.532 338.58 345.08V345.08C351.42 341.79 368.02 346.5 380.63 350.49C381.6 350.8 383.34 351.38 384.27 351.68Z" fill="#687CA8"/>
<path id='29' d="M368.25 445.11C348.47 459.72 360.63 490.04 362.52 494.43C355.02 494.98 346.29 495.36 335.88 495.43C335.33 494.6 316.7 466.78 335.23 448.93C340.16 448.99 345.94 449.51 350.84 449.83C356.832 449.059 362.689 447.471 368.25 445.11Z" fill="#2D5A8E"/>
<path id='30' d="M350.84 449.8C345.94 449.48 340.16 448.96 335.23 448.9C332.639 448.886 330.05 449.047 327.48 449.38C325.62 449.66 323.79 450.01 321.98 450.45C321.917 450.49 321.843 450.507 321.77 450.5L321.42 450.57C308.51 431.5 222.42 432.46 185.59 433.04L179.51 433.11C164.51 433.32 148.81 431.55 133.58 429.88C117.12 428.04 100.12 426.19 84.2899 426.79C56.1899 427.88 19.4799 453.93 14.6799 457.42V457.58C-0.430137 453.01 -16.7801 448.69 -20.8901 447.58C-18.1301 444.93 9.73986 430.83 9.73986 430.83C28.9999 422.08 54.1999 413.44 76.2799 415.07C86.5899 415.83 96.1299 416.85 104.97 417.94C105.28 417.99 105.58 418.01 105.86 418.06C111.64 418.78 117.14 419.55 122.37 420.24C142.37 422.98 159.7 425.33 177.11 424.14L179.55 423.98C212.41 421.73 311.29 416.3 350.84 449.8Z" fill="#335E90"/>
<path id='31' d="M335.88 495.4C334.61 495.4 333.31 495.4 331.98 495.4C326.9 495.3 321.817 495.137 316.73 494.91C303.12 487.13 289.17 479.65 274.68 473.57L274.73 473.48C280.766 469.046 287.116 465.055 293.73 461.54C302.73 456.69 313.08 452 321.39 450.54L321.74 450.47C321.814 450.478 321.888 450.46 321.95 450.42C323.76 449.98 325.59 449.63 327.45 449.35C330.02 449.017 332.609 448.857 335.2 448.87C316.7 466.75 335.33 494.57 335.88 495.4Z" fill="#2D5A8E"/>
<path id='32' d="M338.53 345.08C336.77 345.532 335.058 346.155 333.42 346.94C331.299 348.178 329.07 349.219 326.76 350.05C317.26 353.14 306.98 350.54 297.32 352.77C293.32 353.49 290.96 356.44 288.1 358.9C285.57 360.511 282.836 361.776 279.97 362.66C279.894 362.66 279.821 362.685 279.76 362.73L278.6 363.08C276.05 363.85 273.45 364.45 270.87 365.08C259.54 358.78 246.19 357.9 233.7 355.23C227.31 353.98 220.97 352.14 214.4 351.98C201.4 351.98 188.21 353.3 175.81 348.38C163.53 344.23 151.43 338.21 138.17 338C131.67 337.82 125.1 337.52 118.93 335.57C106.48 331.57 96.5 322.45 84.28 317.57C83.1 317.06 81.94 316.57 80.73 316.06C115.84 305.68 143.89 301.34 178.81 315.67C189.21 319.94 200.05 322.67 211.36 321.84C222.53 321.77 233.79 319.34 244.91 321.47C250.91 322.68 256.91 324.88 263 326.3L263.3 326.37C267.959 327.575 272.805 327.884 277.58 327.28C283.06 326.35 288.37 324.35 294.02 323.86C299.71 322.98 305.3 325.02 310.32 327.51C320.158 332.638 329.589 338.512 338.53 345.08V345.08Z" fill="#7182AE"/>
<path id='33' d="M325.09 366.59L326.09 372.76C324.63 373.02 323.19 373.27 321.75 373.57C292.68 379.52 278.26 389.41 271.3 396.65C264.49 403.71 263.42 410.24 263.22 411.65C259.01 411.65 254.83 411.55 250.65 411.46C251.24 408.46 256.65 385.46 291.89 374.24C302.723 370.877 313.79 368.321 325 366.59H325.09Z" fill="#687CA8"/>
<path id='34' d="M316.73 494.94C321.81 495.174 326.893 495.337 331.98 495.43C270.48 498.68 241.08 508.29 201.38 521.29C196.55 522.87 191.58 524.5 186.38 526.17C140.43 541 -19.1801 552.54 -45.6001 554.42H-45.4801L-45.1801 554.35L-41.5601 553.49C-26.7001 549.82 -11.9301 545.83 2.7899 541.67C13.7899 538.61 24.7899 535.45 35.7899 532.34C59.5899 525.53 83.4099 518.8 107.46 512.97C119.95 509.7 132.7 508.35 145.46 506.7C158.19 504.78 170.75 501.83 183.33 499.2C204.16 494.72 225.33 491.33 246.65 491.2H247.12C251.34 491.2 255.59 491.32 259.82 491.59C261.63 491.69 263.44 491.78 265.25 491.9H265.37C265.37 491.9 265.43 491.9 265.48 491.9C282.53 492.87 299.62 494.19 316.73 494.94Z" fill="#012B4E"/>
<path id='35' d="M0.279938 477.76C4.27994 476.87 8.17994 475.92 12.0999 474.88C12.1699 474.88 12.2199 474.88 12.2599 474.83L14.1199 474.34C22.5899 472.11 30.8399 469.19 39.0599 466.24C39.1446 466.237 39.2259 466.206 39.2899 466.15C50.7399 462.06 62.1399 457.93 74.1199 455.56C94.5499 451.12 115.57 448.5 136.51 449.41C147.12 449.41 157.03 453.03 167.23 455.49C187.78 460.16 208.95 460.3 229.87 461.29C240.32 461.97 250.51 464.75 260.4 468.12C265.207 469.767 269.96 471.594 274.66 473.6C289.15 479.68 303.1 487.16 316.71 494.94C299.6 494.19 282.51 492.87 265.44 491.94C265.44 491.94 265.37 491.94 265.33 491.94H265.21C260.05 490.82 159.98 468.72 132.35 468.72C131.84 468.72 131.35 468.72 130.87 468.72C119.65 469.09 113.15 471.37 105.63 474.01C95.4099 477.61 83.8499 481.68 56.7799 482.72C9.77994 484.53 -47.1501 516.11 -47.7101 516.44V517.27C-51.2401 517.39 -54.7101 517.53 -58.2801 517.78C-75.7401 519.78 -91.9201 528.23 -109.45 529.27C-124.08 528.72 -137.94 522.94 -152.52 521.59C-156.434 521.115 -160.379 520.945 -164.32 521.08C-155.32 516.08 -146.32 511.26 -137.18 506.64C-135.97 506.06 -134.74 505.45 -133.51 504.83L-130.51 503.36H-130.41C-129.41 502.96 -115.18 496.6 -107.73 497.09C-99.8601 496.9 -91.9201 498.95 -84.0901 497.44C-81.4401 496.62 -79.4501 494.77 -77.4001 493.16C-73.419 489.78 -68.6419 487.471 -63.5201 486.45C-58.4401 485.32 -53.1401 485.45 -47.9201 485.01C-31.6944 483.805 -15.5824 481.381 0.279938 477.76V477.76Z" fill="#435E8C"/>
<path id='36' d="M321.42 450.57C313.11 452.03 302.73 456.72 293.76 461.57C287.47 452.33 240.52 448.04 209.5 449.17C194.27 449.73 182.01 447.34 166.5 444.34C148.716 440.691 130.751 437.994 112.68 436.26C65.8699 431.88 32.6799 458.37 28.5599 461.87V461.99C24.3499 460.57 19.5599 459.07 14.6699 457.58V457.42C19.4699 453.93 56.1799 427.88 84.2799 426.79C100.11 426.19 117.11 428.04 133.57 429.88C148.8 431.55 164.57 433.32 179.5 433.11L185.58 433.04C222.41 432.46 308.51 431.5 321.42 450.57Z" fill="#335E90"/>
<path id='37' d="M293.76 461.57C287.146 465.085 280.796 469.076 274.76 473.51L274.71 473.6C270.043 471.6 265.29 469.773 260.45 468.12C250.56 464.75 240.37 461.97 229.92 461.29C209 460.29 187.83 460.16 167.28 455.49C157.08 453.03 147.17 449.49 136.56 449.41C115.62 448.5 94.56 451.12 74.17 455.56C62.17 457.93 50.79 462.06 39.34 466.15C35.806 464.584 32.1947 463.199 28.52 462V461.88C32.65 458.38 65.83 431.88 112.64 436.27C130.711 438.004 148.677 440.701 166.46 444.35C181.97 447.35 194.23 449.74 209.46 449.18C240.52 448 287.47 452.33 293.76 461.57Z" fill="#335E90"/>
<path id='38' d="M270.87 365.08C273.45 364.45 276.05 363.85 278.6 363.08C274.91 366.35 262.81 377.45 250.09 384.35C235.81 392.1 234.21 409 234 411.42C234 411.42 223.11 411.65 210.13 411.88C210.13 411.88 209.83 411.03 209.83 411C209.73 410.72 200.4 383.65 223.73 374.2C225.1 373.71 226.54 373.2 228.1 372.72C241.89 368.28 256.7 368.21 270.87 365.08Z" fill="#687CA8"/>
<path id='39' d="M265.23 491.9C263.42 491.78 261.61 491.69 259.8 491.59C255.57 491.32 251.32 491.2 247.1 491.2H246.63C244.68 490.94 192.04 483.28 148.63 484.79C124.02 485.67 108.35 492.43 94.5099 498.4C83.5099 503.13 74.0099 507.22 62.6999 506.94C38.1699 506.38 8.86989 520.18 6.99989 521.11L2.99989 519.36C-8.19011 515.51 -20.2601 516.36 -31.8701 516.62C-37.1001 516.95 -42.3001 517.07 -47.4801 517.25H-47.6101V516.42C-47.0501 516.09 9.8999 484.51 56.8799 482.7C83.9499 481.7 95.5099 477.59 105.73 473.99C113.25 471.35 119.73 469.07 130.97 468.7C131.43 468.7 131.97 468.7 132.45 468.7C160 468.68 260.07 490.78 265.23 491.9Z" fill="#435E8C"/>
<path id='40' d="M233.68 355.23C246.17 357.9 259.52 358.78 270.85 365.08C256.68 368.21 241.85 368.28 228.08 372.72C226.52 373.23 225.08 373.72 223.71 374.2C216.84 376.62 211.11 378.68 195.85 379.82C191.53 380.14 186.45 380.4 180.34 380.56H179.23C132.93 346.5 72.9999 334.36 40.9999 330.46C13.8299 327.11 8.25988 320.89 2.35988 314.3C-1.64012 309.82 -5.81013 305.17 -16.7901 300.78C-34.3001 293.78 -47.3201 297.53 -62.3701 301.88C-70.9801 304.36 -80.7101 307.19 -92.5101 308.35C-106.18 309.7 -121.25 308.26 -135.81 306.89C-155.57 305.01 -176.02 303.08 -192.42 308.33C-218.42 316.64 -216.77 346.41 -216.52 350.59C-225.2 352.59 -234.58 354.7 -238.83 355.42C-241.18 327.26 -228.38 309.1 -217.05 299.33C-209.568 292.904 -201.05 287.791 -191.86 284.21C-191.844 284.205 -191.826 284.205 -191.81 284.21C-189.37 283.81 -186.94 283.49 -184.55 283.21C-171.528 281.771 -158.375 282.03 -145.42 283.98C-132.49 285.98 -120.02 290.11 -107.16 292.15C-94.3001 294.19 -81.1601 293.15 -68.2701 291.62C-58.5401 290.62 -48.9001 288.09 -39.0801 288.25C-22.7618 289.202 -6.52931 291.287 9.49988 294.49C22.3399 296.91 34.8099 300.9 47.2799 304.75C58.4899 308.24 69.7999 311.56 80.6599 316.06C81.8699 316.55 83.0299 317.06 84.2099 317.57C96.4299 322.45 106.41 331.57 118.86 335.57C125.03 337.52 131.6 337.82 138.1 338C151.36 338.21 163.46 344.23 175.74 348.38C188.14 353.3 201.33 352 214.33 351.98C221 352.14 227.29 354 233.68 355.23Z" fill="#687BA9"/>
<path id='41' d="M246.63 491.2C225.32 491.29 204.14 494.68 183.31 499.2C170.73 501.83 158.17 504.78 145.44 506.7C132.65 508.35 119.9 509.7 107.44 512.97C83.44 518.8 59.57 525.53 35.77 532.34C23.5 528.63 7 521.11 7 521.11C8.88 520.18 38.18 506.38 62.75 506.94C74.06 507.22 83.58 503.13 94.56 498.4C108.4 492.4 124.07 485.67 148.68 484.79C192 483.28 244.68 490.94 246.63 491.2Z" fill="#435E8C"/>
<path id='42' d="M195.85 379.82C211.11 378.68 216.85 376.62 223.71 374.2C200.38 383.65 209.71 410.72 209.81 411C209.81 411 210.11 411.84 210.11 411.88C203.28 412.02 195.85 412.19 189.11 412.3C180.39 388.34 195.85 379.82 195.85 379.82Z" fill="#3E6A9E"/>
<path id='43' d="M195.85 379.82C195.85 379.82 180.39 388.34 189.14 412.3C178.9 412.51 170.31 412.7 167.9 412.77H167.85C153.9 399.09 164.18 382.44 165.16 380.93C169.52 380.837 174.21 380.723 179.23 380.59H180.34C186.45 380.4 191.53 380.14 195.85 379.82Z" fill="#3E6A9E"/>
<path id='44' d="M167.85 412.77L165.02 412.84C156.54 413.07 148.02 413.3 139.59 413.46H139.2C128.75 403.2 136.99 384.7 138.43 381.93C140.66 381.79 143.05 381.65 145.63 381.56C150.51 381.35 155.99 381.19 162.12 381.02L165.12 380.95C164.18 382.44 153.9 399.09 167.85 412.77Z" fill="#3E6A9E"/>
<path id='45' d="M165.16 380.93L162.16 381C160.69 379.22 138.75 364 114.42 358.09C106.9 356.28 97.42 355.09 86.42 353.61C62.13 350.45 31.9 346.55 9.42 333.8C-23.94 314.95 -36.13 310.8 -70.34 316.55C-94.92 320.68 -110.69 319.55 -130.63 318.17C-138.99 317.59 -148.49 316.92 -159.68 316.57C-194.23 315.48 -198.97 341.97 -199.55 346.57C-202.43 347.27 -209.16 348.9 -216.36 350.57C-216.61 346.39 -218.28 316.62 -192.26 308.31C-175.86 303.06 -155.41 304.99 -135.65 306.87C-121.09 308.24 -106.02 309.68 -92.35 308.33C-80.55 307.17 -70.82 304.33 -62.21 301.86C-47.16 297.51 -34.14 293.75 -16.63 300.76C-5.63 305.15 -1.49 309.76 2.52 314.28C8.42 320.87 13.99 327.09 41.16 330.44C73.16 334.34 133.06 346.44 179.36 380.57C174.253 380.724 169.52 380.844 165.16 380.93Z" fill="#48669C"/>
<path id='46' d="M147.23 188C150.13 191.72 157.05 194.41 166.64 196.43C115 225 7.84995 192.68 -59.0901 179.56C-126.03 166.44 -205.83 167.11 -232.51 167.86C-259.19 168.61 -278.74 169.97 -276.62 146.59C-274.5 123.21 -205.18 101.48 -205.18 101.48C-201.7 101.27 -199.72 101.13 -199.72 101.13C-191.99 100.45 -183.72 99.99 -175.97 99.27C-125.38 94.65 -77.59 90.27 -68.89 97.9C-65.59 100.8 -63.89 103.75 -63.66 106.9C-63.27 112.96 -68.4501 118.84 -73.4601 124.52C-79.0801 130.89 -84.4001 136.92 -81.6301 142.82C-78.4301 149.58 -50.5701 147.82 -21.0301 146C4.96994 144.38 31.7 142.7 44.14 146.42C44.1734 146.453 44.215 146.477 44.2606 146.49C44.3062 146.502 44.3543 146.502 44.4 146.49C44.56 146.49 44.7199 146.61 44.8799 146.65C46.6381 147.169 48.2693 148.047 49.67 149.23C53.3452 152.781 56.4395 156.888 58.8399 161.4C63.4399 169.31 66.7599 175.05 90.1599 177.76C99.7525 178.855 109.442 178.794 119.02 177.58C127.54 176.7 133.35 176.09 139.43 180.2C142.427 182.37 145.06 185.003 147.23 188V188Z" fill="#7E7CB3"/>
<path id='47' d="M114.38 358.09C138.71 363.96 160.65 379.22 162.12 381C155.99 381.17 150.51 381.33 145.63 381.54C119.07 369.38 95.1301 366.89 71.2801 364.85C60.0501 363.87 49.4101 363 39.0001 361C22.2401 357.86 8.49006 350 -4.80994 342.47C-17.4399 335.29 -29.3799 328.47 -42.8899 326.24C-56.3999 324.01 -70.2199 326.01 -84.7999 328.16C-100.01 330.42 -115.73 332.74 -132.49 330.32C-160.91 326.19 -178.9 339.7 -182.87 342.86C-188.42 343.86 -193.93 345.16 -199.43 346.48L-199.69 346.55C-199.11 341.93 -194.37 315.44 -159.82 316.55C-148.63 316.9 -139.13 317.55 -130.77 318.15C-110.83 319.57 -95.0599 320.66 -70.4799 316.53C-36.27 310.77 -24.0799 314.93 9.28006 333.78C31.8001 346.53 62.0301 350.43 86.2801 353.59C97.3401 355.05 106.86 356.28 114.38 358.09Z" fill="#48669C"/>
<path id='48' d="M145.63 381.51C143.05 381.6 140.63 381.74 138.43 381.88C135.32 382.09 132.53 382.32 130.1 382.62C120.37 379.86 111.17 377.51 101.1 376.75C91.0299 375.99 80.8699 376.75 70.7499 376.52C50.7499 375.84 29.1699 375.26 12.1899 363.52C-5.00009 353.33 -23.3801 343.27 -43.6201 341.37C-53.7001 340.72 -63.8001 342.67 -73.9001 342.74C-94.1301 343.48 -114.4 343.25 -134.62 342.53C-147.25 342.39 -159.88 340.35 -172.49 341.32C-175.95 341.74 -179.41 342.32 -182.84 342.9C-178.84 339.74 -160.84 326.23 -132.46 330.36C-115.7 332.78 -99.9801 330.46 -84.7701 328.2C-70.1901 326.05 -56.4201 324 -42.8601 326.28C-29.3001 328.56 -17.4101 335.33 -4.78009 342.51C8.51991 350.08 22.2699 357.9 38.9999 361C49.3799 362.92 59.9999 363.83 71.2499 364.78C95.1299 366.86 119.07 369.35 145.63 381.51Z" fill="#48669C"/>
<path id='49' d="M138.43 381.91C136.99 384.68 128.75 403.18 139.2 413.44C133.67 413.56 128.12 413.68 122.6 413.72C121.3 413.72 120 413.72 118.7 413.72C109.15 404.64 112.01 389.38 112.24 388.15C115.56 386.78 118.49 385.62 120.65 384.76C123.703 383.679 126.876 382.977 130.1 382.67C132.53 382.35 135.32 382.12 138.43 381.91Z" fill="#19568C"/>
<path id='50' d="M112.24 388.13C102.79 392.08 90.18 397.91 83.17 404.13L83.1 404.62C82.8048 404.595 82.5111 404.555 82.22 404.5C75.22 403.62 68.13 404.04 61.07 403.11C54.07 402.35 47.07 401.04 40.07 399.88C32.4877 398.163 24.7668 397.129 17 396.79C9 391.06 -43.92 354.14 -113 354.14C-145 354.14 -163.06 359.85 -184 366.45C-196.727 370.64 -209.665 374.162 -222.76 377C-230.35 378.468 -238.087 379.035 -245.81 378.69C-285.17 377.48 -332.05 359.44 -337.25 357.4V325.74C-329.656 332.79 -321.076 338.695 -311.78 343.27V343.27C-300.468 348.794 -288.417 352.65 -276 354.72C-268.853 355.969 -261.63 356.731 -254.38 357C-249.3 357.19 -244.28 356.28 -239.31 355.54L-238.82 355.47C-234.57 354.75 -225.19 352.66 -216.51 350.64C-209.31 348.97 -202.58 347.34 -199.7 346.64L-199.44 346.57C-193.94 345.25 -188.44 343.97 -182.88 342.95C-179.45 342.33 -175.99 341.79 -172.53 341.37C-159.92 340.37 -147.29 342.44 -134.66 342.58C-114.44 343.3 -94.17 343.58 -73.94 342.79C-63.84 342.72 -53.74 340.79 -43.66 341.42C-23.42 343.32 -5.08001 353.42 12.15 363.57C29.15 375.34 50.74 375.92 70.71 376.57C80.83 376.82 90.98 376.12 101.06 376.8C111.14 377.48 120.33 379.91 130.06 382.67C126.836 382.977 123.662 383.679 120.61 384.76C118.49 385.6 115.56 386.76 112.24 388.13Z" fill="#024980"/>
<path id='51' d="M118.7 413.7H118.33C118.33 413.7 110.78 413.88 106.44 413.53C106.11 413.53 105.81 413.46 105.53 413.44C104.132 413.288 102.745 413.04 101.38 412.7C97.9601 411.35 95.5201 408.59 92.3201 407.19C89.39 405.888 86.2828 405.029 83.1001 404.64L83.1701 404.15C90.1701 397.91 102.79 392.08 112.24 388.15C112 389.36 109.15 404.62 118.7 413.7Z" fill="#19568C"/>
<path id='52' d="M17.0001 396.79C24.7776 397.134 32.5086 398.175 40.1001 399.9C47.1001 401.06 54.0301 402.37 61.1001 403.13C68.1601 404.06 75.2801 403.64 82.2501 404.52C82.5412 404.575 82.8349 404.615 83.1301 404.64C86.3127 405.029 89.42 405.888 92.3501 407.19C95.5501 408.59 97.9901 411.35 101.41 412.7C102.775 413.04 104.162 413.288 105.56 413.44C105.84 413.44 106.14 413.51 106.47 413.53L105.89 418.06C105.61 418.01 105.31 417.99 105 417.94C96.1601 416.85 86.6201 415.83 76.3101 415.07C54.2301 413.44 29.0101 422.07 9.72007 430.85L9.62007 430.76C-12.8399 422.1 -63.2199 417.94 -111.86 417C-112.56 417 -113.26 417 -113.93 417L-113.81 411C-113.12 411 -112.44 411.05 -111.75 411.05C-110.172 411.052 -108.596 410.959 -107.03 410.77C-91.7299 409.17 -76.4299 406.52 -61.1099 403.94C-57.3499 403.32 -53.5899 402.69 -49.7999 402.11C-40.3299 400.58 -30.8499 399.18 -21.3599 398.19C-8.62642 396.763 4.19638 396.295 17.0001 396.79V396.79Z" fill="#4D709E"/>
<path id='53' d="M39.31 466.15C39.2459 466.205 39.1647 466.237 39.08 466.24C30.86 469.19 22.61 472.11 14.14 474.34L12.28 474.83C12.28 474.88 12.19 474.88 12.12 474.88C-18.83 455.42 -83.66 461.78 -116.81 468.93L-125.01 470.74C-139.85 474.06 -153.41 477.08 -167.82 477.08C-176.817 477.086 -185.771 475.851 -194.43 473.41C-219.11 466.56 -263.76 464.85 -274.54 464.52C-274.54 464.52 -310.6 453.77 -337.23 453.77V417.77C-333.79 419.65 -285.68 445.77 -253.59 448.53C-235.95 450.07 -206.59 446.35 -175.59 442.45C-148.33 438.99 -120.14 435.45 -99.9 435.62C-76.9 435.83 -48.7 440.83 -21.9 447.35L-20.9 447.61C-16.79 448.7 -0.439956 453.02 14.67 457.61C19.59 459.1 24.35 460.61 28.56 462.02C32.2107 463.215 35.7986 464.593 39.31 466.15V466.15Z" fill="#55648A"/>
<path id='54' d="M-217.23 552.17C-210.89 546.27 -205.76 544.37 -196.5 541.56C-191.776 540.084 -187.438 537.577 -183.8 534.22C-181.104 531.81 -178.794 529.001 -176.95 525.89C-175.003 524.022 -172.611 522.683 -170 522C-168.136 521.474 -166.222 521.139 -164.29 521V521C-160.349 520.864 -156.404 521.035 -152.49 521.51C-137.91 522.86 -124.05 528.64 -109.42 529.19C-91.8901 528.19 -75.7101 519.72 -58.2501 517.7C-54.7201 517.45 -51.2501 517.31 -47.6801 517.19H-47.5501C-42.3701 517.01 -37.1701 516.89 -31.9401 516.56C-20.3301 516.31 -8.26008 515.45 2.92992 519.3L6.92992 521.05H6.99992C6.99992 521.05 23.5099 528.57 35.7499 532.21C24.7499 535.32 13.7499 538.48 2.79993 541.54C-14.6601 535.27 -38.9501 545.63 -52.7601 547.6C-66.5701 549.57 -77.8901 545.05 -101.59 543.14C-125.29 541.23 -147.59 559.42 -147.59 559.42C-163.52 560.56 -183.18 562.42 -200.97 563.42C-209.52 563.84 -218.089 563.505 -226.58 562.42C-223.702 558.793 -220.578 555.368 -217.23 552.17V552.17Z" fill="#565E89"/>
<path id='55' d="M-296.66 0.360107H11.54C5.31998 5.00011 -24.47 26.1301 -58.83 28.5501C-75.83 29.7501 -96.03 28.8001 -117.46 27.8001C-144.95 26.5301 -173.37 25.2001 -195.99 28.5501C-233.46 34.1201 -244.37 38.2701 -245.46 38.7201C-253.27 36.4901 -268.29 36.2801 -288.46 35.5301C-317.02 34.4701 -319.46 28.5301 -315.09 17.3301C-311.27 7.72011 -299.77 1.82011 -296.66 0.360107Z" fill="#D190AD"/>
<path id='56' d="M16.9999 396.79C4.21465 396.274 -8.59133 396.719 -21.31 398.12C-22.14 396.93 -29.09 387.69 -44.81 379.45C-60.25 371.35 -87.67 362.34 -130.51 365.45C-179.22 369 -202.16 389.71 -203.71 391.2C-207.29 390.41 -209.96 389.8 -210.71 389.66C-222.326 387.061 -234.155 385.525 -246.05 385.07L-245.77 378.68C-238.061 379.025 -230.338 378.461 -222.76 377C-209.699 374.161 -196.795 370.643 -184.1 366.46C-163.15 359.86 -145.1 354.15 -113.1 354.15C-44 354.14 8.99994 391.06 16.9999 396.79Z" fill="#024980"/>
<path id='57' d="M9.58997 430.76L9.68997 430.85C9.68997 430.85 -18.18 445 -20.94 447.6L-21.94 447.34C-48.71 440.82 -76.94 435.82 -99.94 435.61C-120.18 435.43 -148.37 438.98 -175.63 442.44C-206.63 446.34 -236 450.06 -253.63 448.52C-285.72 445.74 -333.83 419.64 -337.27 417.76V401C-332.48 402.56 -258.63 426.24 -208.98 420.16C-187.76 417.56 -151.52 416.3 -113.98 416.93C-113.31 416.93 -112.61 416.93 -111.91 416.93C-63.22 417.94 -12.84 422.1 9.58997 430.76Z" fill="#2F5788"/>
<path id='58' d="M12.0999 474.88C8.17991 475.88 4.24991 476.88 0.279907 477.76C-13.6001 474.58 -28.3901 472 -42.7201 472.11C-53.5401 472.58 -64.9801 473.58 -74.4601 479.27C-79.0501 482.05 -83.6001 485.44 -89.0601 485.93C-94.5601 486.07 -99.1401 482.14 -104.52 481.26C-111.7 479.33 -119.18 480.61 -126.23 482.35C-140.35 485.79 -154.35 489.97 -168.82 491.46C-183.3 493.22 -197.89 491.39 -211.82 487.25C-225.82 483.33 -239.15 477.43 -252.71 472.14C-259.883 469.28 -267.173 466.74 -274.58 464.52C-263.8 464.85 -219.15 466.52 -194.47 473.41C-185.811 475.851 -176.857 477.086 -167.86 477.08C-153.45 477.08 -139.86 474.08 -125.05 470.74L-116.85 468.93C-83.6801 461.78 -18.8501 455.42 12.0999 474.88Z" fill="#55648A"/>
<path id='59' d="M-52.7701 547.69C-38.9601 545.69 -14.6701 535.36 2.7899 541.63C-11.9301 545.79 -26.7001 549.78 -41.5601 553.45L-45.1801 554.31L-45.4801 554.38H-45.6001C-47.9001 554.96 -60.1301 557.87 -94.8201 563.38C-95.7301 563.52 -96.6301 563.68 -97.5601 563.86C-106.098 560.781 -115.053 559.011 -124.12 558.61C-131.956 558.494 -139.793 558.774 -147.6 559.45C-147.6 559.45 -125.28 541.27 -101.6 543.17C-77.9201 545.07 -66.5901 549.66 -52.7701 547.69Z" fill="#565E89"/>
<path id='60' d="M-42.7 472.11C-28.39 472 -13.6 474.58 0.299988 477.76C-15.5626 481.378 -31.6746 483.798 -47.9 485C-53.12 485.44 -58.42 485.31 -63.5 486.44C-68.6218 487.46 -73.3989 489.77 -77.38 493.15C-79.43 494.76 -81.38 496.61 -84.07 497.43C-91.9 498.94 -99.84 496.89 -107.71 497.08C-115.16 496.59 -129.35 502.95 -130.39 503.35H-130.49L-133.49 504.82C-150.494 510.552 -168.297 513.559 -186.24 513.73C-193.737 513.762 -201.219 513.062 -208.58 511.64C-219.802 509.366 -230.892 506.482 -241.8 503C-257.89 498.12 -270.03 495.08 -289 498.15C-307.37 492.78 -334 493.08 -337.25 493.15V453.75C-310.62 453.75 -274.56 464.5 -274.56 464.5C-267.147 466.713 -259.857 469.253 -252.69 472.12C-239.13 477.41 -225.8 483.31 -211.8 487.23C-197.87 491.37 -183.28 493.23 -168.8 491.44C-154.33 489.95 -140.33 485.77 -126.21 482.33C-119.21 480.59 -111.68 479.33 -104.5 481.24C-99.12 482.12 -94.5 486.05 -89.04 485.91C-83.58 485.42 -79.04 482.03 -74.44 479.25C-65 473.58 -53.52 472.58 -42.7 472.11Z" fill="#55648A"/>
<path id='61' d="M-182.84 342.9C-178.84 339.74 -160.84 326.23 -132.46 330.36C-115.7 332.78 -99.9801 330.46 -84.7701 328.2C-70.1901 326.05 -56.4201 324 -42.8601 326.28C-29.3001 328.56 -17.4101 335.33 -4.78009 342.51C8.51991 350.08 22.2699 357.9 38.9999 361C49.3799 362.92 59.9999 363.83 71.2499 364.78C95.0999 366.78 119.04 369.31 145.6 381.47" stroke="black" stroke-width="0.66" stroke-miterlimit="10"/>
<path id='62' d="M-311.78 343.3C-300.467 348.813 -288.415 352.659 -276 354.72C-268.853 355.969 -261.63 356.73 -254.38 357C-249.3 357.19 -244.28 356.28 -239.31 355.54L-238.82 355.47C-234.57 354.75 -225.19 352.66 -216.51 350.64C-209.31 348.97 -202.58 347.34 -199.7 346.64L-199.44 346.57C-193.94 345.25 -188.44 343.97 -182.88 342.95C-179.45 342.33 -175.99 341.79 -172.53 341.37C-159.92 340.37 -147.29 342.44 -134.66 342.58C-114.44 343.3 -94.17 343.58 -73.94 342.79C-63.84 342.72 -53.74 340.79 -43.66 341.42C-23.42 343.32 -5.08004 353.42 12.15 363.57C29.15 375.34 50.74 375.92 70.71 376.57C80.83 376.82 90.98 376.12 101.06 376.8C111.14 377.48 120.33 379.91 130.06 382.67" stroke="black" stroke-width="2.63" stroke-miterlimit="10"/>
<path id='63' d="M270.85 365.08C259.52 358.78 246.17 357.9 233.68 355.23C227.29 353.98 220.95 352.14 214.38 351.98C201.38 351.98 188.19 353.3 175.79 348.38C163.51 344.23 151.41 338.21 138.15 338C131.65 337.82 125.08 337.52 118.91 335.57C106.46 331.57 96.48 322.45 84.26 317.57C83.08 317.06 81.92 316.57 80.71 316.06C69.85 311.56 58.54 308.24 47.33 304.75C34.86 300.9 22.39 296.91 9.55002 294.49C-6.46859 291.278 -22.691 289.183 -39 288.22C-48.82 288.06 -58.46 290.54 -68.19 291.59C-81.07 293.1 -94.19 294.31 -107.08 292.12C-119.97 289.93 -132.41 285.92 -145.34 283.95C-158.295 282 -171.448 281.741 -184.47 283.18C-186.86 283.44 -189.29 283.76 -191.73 284.18" stroke="black" stroke-width="2.63" stroke-miterlimit="10"/>
<path id='64' d="M436.88 321.17C428.759 323.499 420.859 326.537 413.27 330.25C401.709 335.849 390.761 342.632 380.6 350.49C367.99 346.49 351.39 341.79 338.55 345.08C336.79 345.531 335.078 346.154 333.44 346.94C331.319 348.177 329.09 349.218 326.78 350.05C317.28 353.14 307 350.54 297.34 352.77C293.34 353.49 290.98 356.44 288.12 358.9C285.59 360.511 282.856 361.775 279.99 362.66C279.914 362.66 279.841 362.684 279.78 362.73L278.62 363.08C276.07 363.85 273.47 364.45 270.89 365.08C256.72 368.21 241.89 368.28 228.12 372.72C226.56 373.23 225.12 373.72 223.75 374.2C216.88 376.62 211.15 378.68 195.89 379.82C191.57 380.14 186.49 380.4 180.38 380.56H179.27C174.25 380.7 169.56 380.813 165.2 380.9L162.2 380.97C156.07 381.14 150.59 381.3 145.71 381.51C143.13 381.6 140.71 381.74 138.51 381.88C135.4 382.09 132.61 382.32 130.18 382.62C126.956 382.927 123.782 383.628 120.73 384.71C118.57 385.57 115.64 386.71 112.32 388.1C102.87 392.05 90.26 397.88 83.25 404.1" stroke="black" stroke-width="2.63" stroke-linejoin="round"/>
<path id='65' d="M438.05 320.84C414.5 312.42 402.52 318.69 390.91 324.77C383.71 328.53 376.91 332.08 367.62 332.08C353.37 332.08 346.91 326.08 340.09 319.78C335.19 315.25 330.09 310.56 321.91 307.61C302.22 300.55 264.7 324.61 263.12 325.67" stroke="black" stroke-width="1.32" stroke-miterlimit="10"/>
<path id='66' d="M1009.08 365.47C999.24 362.47 867.82 323.31 828.98 322.1C808.08 321.43 791.15 327.39 771.53 334.26C753.47 340.6 733 347.8 705.9 350.52C655.21 355.6 535.24 333.31 482.32 319.43C467.74 315.6 451.61 317.32 438.05 320.87C437.65 320.96 437.28 321.05 436.88 321.17" stroke="black" stroke-width="2.63" stroke-miterlimit="10"/>
<path id='67' d="M948.2 360.55L912 353.1C911.18 352.91 910.4 352.75 909.68 352.61C909.54 352.56 897.9 350.22 892.19 349.26C879.103 346.995 865.904 345.43 852.65 344.57H852.23C826.02 343.04 799.64 344.83 774.23 351.77C772.73 352.16 770.31 352.77 768.5 353.32L766 354C759.22 356 752.51 358.18 745.84 360.55C736.48 363.61 727.43 368.07 717.79 370.07C708.06 371.72 698.06 370.83 688.28 369.74C673.59 368.14 659 364.43 644.45 361.92C634.45 361.25 624.71 363.92 614.89 364.92C610.01 365.45 604.95 365.8 600.33 364.17C598.17 363.17 596.08 361.78 593.92 360.53C593.894 360.479 593.854 360.436 593.804 360.408C593.755 360.379 593.697 360.366 593.64 360.37C593.39 360.23 593.13 360.06 592.85 359.92C591.047 358.873 589.114 358.069 587.1 357.53C579.76 355.28 572.26 357.42 564.88 357.58C557.45 357.51 550.13 356.12 542.82 355.03C537.917 354.199 532.968 353.668 528 353.44C508.19 353.33 490.71 368.74 470.37 364.89C460.55 363.24 452.19 357.32 442.85 354.07C427.34 348.75 410.74 356.18 395.05 354.53C391.316 354.188 387.666 353.225 384.25 351.68C383.32 351.38 381.58 350.8 380.58 350.49" stroke="black" stroke-width="1.32" stroke-miterlimit="10"/>
<path id='68' d="M-337.25 385.16C-309.11 384.79 -280.92 384.53 -252.78 384.97C-250.553 384.97 -248.323 385.003 -246.09 385.07C-234.195 385.525 -222.366 387.061 -210.75 389.66C-210.01 389.8 -207.34 390.41 -203.75 391.2C-196.09 392.94 -184.2 395.68 -177.84 397.2C-177.52 397.27 -177.19 397.37 -176.89 397.44C-174.41 398.04 -171.89 398.67 -169.46 399.27L-163.19 400.8L-162.89 400.87C-162.824 400.901 -162.753 400.918 -162.68 400.92C-151.23 403.73 -139.76 406.56 -128.15 408.92C-123.422 409.939 -118.626 410.607 -113.8 410.92C-113.11 410.92 -112.43 410.97 -111.74 410.97C-110.162 410.972 -108.586 410.879 -107.02 410.69C-91.72 409.09 -76.42 406.44 -61.1 403.86C-57.34 403.24 -53.58 402.61 -49.79 402.03C-40.32 400.5 -30.84 399.1 -21.35 398.11C-8.6178 396.71 4.20165 396.269 17 396.79C24.7775 397.134 32.5085 398.175 40.1 399.9C47.1 401.06 54.03 402.37 61.1 403.13C68.16 404.06 75.28 403.64 82.25 404.52C82.5411 404.575 82.8348 404.615 83.13 404.64C86.3127 405.029 89.4199 405.888 92.35 407.19C95.55 408.59 97.99 411.35 101.41 412.7C102.775 413.04 104.162 413.287 105.56 413.44C105.84 413.44 106.14 413.51 106.47 413.53C110.81 413.88 118.31 413.74 118.36 413.7H118.73C120.03 413.7 121.33 413.7 122.63 413.7C128.15 413.7 133.7 413.54 139.23 413.42H139.62C148.1 413.26 156.57 413.03 165.05 412.8L167.88 412.73H167.93C170.34 412.66 178.93 412.47 189.17 412.26C195.88 412.15 203.31 411.98 210.17 411.84C223.17 411.61 234.01 411.38 234.04 411.38C239.31 411.38 250.29 411.38 250.31 411.38H250.68C254.86 411.47 259.04 411.54 263.25 411.57C263.25 411.57 271.25 411.29 278.94 410.92C284.7 410.66 290.3 410.36 292.25 410.13C299.25 409.29 306.25 408.08 313.19 406.62C323.43 404.72 333.97 400.93 344.4 403.56C354.59 406.25 365.45 407.02 375.9 407.85C404.11 409.48 432.58 409.85 460.65 406.11C467.52 405.16 474.65 403.37 481.5 402.39L492.04 401.39C523.39 399.39 556.04 399.48 587.4 399.65C636.83 400.46 686.4 400.65 735.68 404.4C750.79 406.12 782.86 410.98 798.68 413.27C812.68 415.22 826.68 417.27 840.82 418.06C850.41 418.48 871.12 415.74 880.62 414.39C883.17 414.02 884.91 413.76 885.42 413.67H885.58C888.58 413.32 898.66 412.32 910.85 411.18C921.57 410.18 933.9 409.07 944.37 408.18C955.68 407.23 964.83 406.58 967.37 406.67C967.9 406.67 969.97 406.9 972.78 407.2C979.35 407.92 990.1 409.2 995.14 410.2L995.6 410.27C1000.16 411.098 1004.67 412.207 1009.09 413.59" stroke="black" stroke-width="2.63" stroke-miterlimit="10"/>
<path id='69' d="M-337.25 357.39C-332.05 359.39 -285.17 377.47 -245.81 378.68C-238.087 379.028 -230.351 378.464 -222.76 377C-209.699 374.161 -196.795 370.643 -184.1 366.46C-163.15 359.86 -145.1 354.15 -113.1 354.15C-44 354.14 9 391.06 17 396.79C17 396.79 17 396.79 17.05 396.79" stroke="black" stroke-width="0.66" stroke-miterlimit="10"/>
<path id='70' d="M278.88 411C280.69 408.79 288.19 400.32 302.5 393.42C317.87 386 344.66 378.47 385 385C446.34 394.87 478 392.64 514.65 390.06C524.75 389.37 535.18 388.62 546.72 388.11C594.59 385.98 682.15 387.83 761.26 396.94C826.06 404.39 870.66 412.7 880.58 414.47" stroke="black" stroke-width="0.66" stroke-miterlimit="10"/>
<path id='71' d="M592.66 360.59C583.42 362.59 507.59 378.91 481.81 381.82C471.46 382.98 453.97 380.45 433.75 377.52C400.87 372.78 360.29 366.91 326.06 372.76C324.6 373.02 323.16 373.27 321.72 373.57C292.65 379.52 278.23 389.41 271.27 396.65C264.46 403.71 263.39 410.24 263.19 411.65" stroke="black" stroke-width="1.32" stroke-miterlimit="10"/>
<path id='72' d="M250.62 411.42C251.21 408.42 256.62 385.42 291.86 374.2C302.704 370.85 313.781 368.306 325 366.59V366.59C334.35 365.05 343.55 363.96 352.19 362.94C368.97 360.94 384.6 358.57 394.98 354.53" stroke="black" stroke-width="1.32" stroke-miterlimit="10"/>
<path id='73' d="M210.11 411.88C210.11 411.88 209.81 411.03 209.81 411C209.71 410.72 200.38 383.65 223.71 374.2" stroke="black" stroke-width="1.32" stroke-miterlimit="10"/>
<path id='74' d="M278.6 363.08C274.91 366.35 262.81 377.45 250.09 384.35C235.81 392.1 234.21 409 234 411.42" stroke="black" stroke-width="1.32" stroke-miterlimit="10"/>
<path id='75' d="M162.12 381C160.65 379.22 138.71 364 114.38 358.09C106.86 356.28 97.3799 355.09 86.3799 353.61C62.0899 350.45 31.8599 346.55 9.37985 333.8C-23.9801 314.95 -36.1702 310.8 -70.3802 316.55C-94.9602 320.68 -110.73 319.55 -130.67 318.17C-139.03 317.59 -148.53 316.92 -159.72 316.57C-194.27 315.48 -199.01 341.97 -199.59 346.57C-199.59 346.76 -199.59 346.9 -199.66 347.02" stroke="black" stroke-width="0.66" stroke-miterlimit="10"/>
<path id='76' d="M-216.49 350.66V350.59C-216.74 346.41 -218.41 316.64 -192.39 308.33C-175.99 303.08 -155.54 305.01 -135.78 306.89C-121.22 308.26 -106.15 309.7 -92.4801 308.35C-80.6801 307.19 -70.9501 304.35 -62.3401 301.88C-47.2901 297.53 -34.2701 293.77 -16.7601 300.78C-5.76012 305.17 -1.62012 309.78 2.38988 314.3C8.28988 320.89 13.8599 327.11 41.0299 330.46C73.0299 334.36 132.93 346.46 179.23 380.59" stroke="black" stroke-width="0.66" stroke-miterlimit="10"/>
<path id='77' d="M118.7 413.7C109.15 404.62 112.01 389.36 112.24 388.13C112.245 388.107 112.245 388.083 112.24 388.06" stroke="black" stroke-width="0.66" stroke-miterlimit="10"/>
<path id='78' d="M138.43 381.93C136.99 384.7 128.75 403.2 139.2 413.46" stroke="black" stroke-width="0.66" stroke-miterlimit="10"/>
<path id='79' d="M44.8799 146.68C53.8799 144.38 116.77 129.11 176.28 141.43C237.74 154.18 348.42 148.19 438 141.55L453.88 140.37C496.35 137.19 575.41 131.26 642.35 127.43C743.7 121.63 766.01 123.49 766.87 126.06C766.96 126.32 766.64 126.71 765.99 127.13C745.85 140.18 404.63 170 351.81 171.62C336.56 172.06 315.54 170.92 293.28 169.62C239.2 166.62 171.73 163.62 139.43 180.18" stroke="black" stroke-width="0.66" stroke-miterlimit="10"/>
<path id='80' d="M711.82 216.55C709.82 215.5 696.75 209.55 653.35 204.77C627.83 201.99 594.75 210.9 562.78 219.52C535.38 226.93 509.49 233.91 490.17 233.1C479 232.64 475.52 230.29 474.57 228.41C473.94 227.2 474.15 225.76 475.22 224.16C481 215.41 510.98 203.34 538.93 205.29C566.61 207.19 617.41 191.42 662.22 177.52C686.74 169.9 707.94 163.33 721.71 160.8C755.98 154.55 797.01 171.94 805.41 175.66" stroke="black" stroke-width="0.66" stroke-miterlimit="10"/>
<path id='81' d="M12.0001 0C11.8369 0.107634 11.6799 0.22449 11.5301 0.35C5.32006 5 -24.47 26.13 -58.83 28.55C-75.83 29.75 -96.03 28.8 -117.46 27.8C-144.95 26.53 -173.37 25.2 -195.99 28.55C-233.46 34.12 -244.37 38.27 -245.46 38.72" stroke="black" stroke-width="0.66" stroke-miterlimit="10"/>
<path id='82' d="M44.3998 109.11C72.9598 106.49 127.96 110.34 191.63 114.83C240.06 118.24 294.97 122.09 346.7 123.6C353.27 123.81 359.89 123.9 366.51 123.9C414.2 123.9 462.38 118.9 504.06 109.53C545.74 100.16 577.06 87.2199 587.78 74.9399C590.89 71.4099 591.87 68.5499 590.78 66.2299C587.04 58.2299 558.32 58.7999 522 59.5899C502.43 59.9799 480.23 60.4699 459.34 59.5899C391.52 56.5899 352.48 52.4099 304.63 42.7999C278.37 37.5299 245.89 45.9599 214.47 54.1099C188.42 60.8399 163.83 67.1799 142.38 66.4999C129.38 66.0899 112.38 64.3199 94.3799 62.4999C45.8599 57.4999 -14.5401 51.2199 -41.1701 66.5899C-49.1101 71.1899 -52.2702 76.2699 -50.5502 81.6799C-45.3202 98.0899 5.24985 112.74 44.3998 109.11Z" stroke="black" stroke-width="0.66" stroke-miterlimit="10"/>
<path id='83' d="M84.2598 96.39C96.3398 96.39 144.26 99.06 194.92 101.87C248.72 104.87 309.67 108.23 338.76 109.04C340.71 109.04 342.76 109.11 344.85 109.11C373.06 109.11 415.96 104.45 448.22 99.83C480.91 95.16 519.22 88.12 519.8 83.64C519.89 82.71 518.8 82.02 516.29 81.51C507.29 79.65 486.83 80.02 460.92 80.46C410.67 81.34 341.83 82.53 312.46 67.32C287.73 54.53 271.8 59.96 251.65 66.86C235.76 72.29 216 79.07 186.49 78.35C174.07 78.05 163.49 77.72 154.2 77.44C114.2 76.24 97.6798 75.73 60.9098 81.51C54.4998 82.51 53.7098 84.8 53.7998 86.08C54.1998 90.93 67.2898 96.39 84.2598 96.39Z" stroke="black" stroke-width="0.66" stroke-miterlimit="10"/>
<path id='84' d="M338.53 345.08C329.582 338.511 320.145 332.637 310.3 327.51C305.3 325.02 299.69 322.98 294 323.86C288.35 324.35 283 326.35 277.56 327.28C272.785 327.884 267.939 327.575 263.28 326.37L262.98 326.3C256.89 324.88 250.93 322.68 244.89 321.47C233.77 319.34 222.51 321.77 211.34 321.84C200.03 322.7 189.19 319.94 178.79 315.67C143.87 301.34 115.79 305.67 80.71 316.06" stroke="black" stroke-width="1.32" stroke-miterlimit="10"/>
<path id='85' d="M350.84 449.8C311.29 416.3 212.41 421.73 179.55 424L177.11 424.16C159.7 425.35 142.4 423 122.37 420.26C117.14 419.57 111.64 418.8 105.86 418.08C105.58 418.03 105.28 418.01 104.97 417.96C96.1301 416.87 86.5901 415.85 76.2801 415.09C54.2001 413.46 28.9801 422.09 9.69006 430.87C9.69006 430.87 -18.1799 444.97 -20.9399 447.62" stroke="black" stroke-width="1.32" stroke-miterlimit="10"/>
<path id='86' d="M955.54 435C942.19 435.05 928.82 435.54 915.54 436.7C908.14 436.653 900.748 436.236 893.39 435.45C883.39 434.45 873.39 432.94 863.39 431.64C849.71 429.8 836.04 428.32 822.25 428.76C817.25 428.76 805.81 429.55 795.38 430.31C786.49 430.96 778.38 431.61 775.51 431.82C757.595 432.669 739.646 432.428 721.76 431.1C702.97 429.71 689.51 427.46 682.19 426.44C666.66 424.53 651.64 420 636.1 418.05C612.68 415.05 589.34 419.91 566.1 422.19C534.1 425.67 502.18 420.84 470.23 418.19C470.176 418.147 470.109 418.122 470.04 418.12C469.65 418.12 469.23 418.12 468.84 418.12C465.1 417.82 461.34 417.54 457.6 417.31C454.86 417.14 452.1 417 449.36 416.91C423.03 415.52 405.05 423.09 383.11 436.72C378.299 439.797 373.332 442.624 368.23 445.19" stroke="black" stroke-width="2.63" stroke-miterlimit="10"/>
<path id='87' d="M693.4 468.72C628.76 479.72 607.63 476.48 583.16 472.79C570.07 470.79 556.55 468.79 535.16 468.68H533.2C495.37 468.68 481.09 474.92 475.8 480.22C474.424 481.595 473.458 483.327 473.01 485.22" stroke="black" stroke-width="1.32" stroke-miterlimit="10"/>
<path id='88' d="M438.39 483.33C439.39 481.1 449.33 461.6 501.87 456.63C537.26 453.28 564.17 456.77 585.79 459.55C598.79 461.25 609.91 462.69 620.08 462.32C628 462.04 638.14 460.88 648.87 459.65C674.81 456.65 704.01 453.65 716.25 460.9" stroke="black" stroke-width="1.32" stroke-miterlimit="10"/>
<path id='89' d="M620.24 503.09C590.08 491.2 535.63 497.91 535.1 497.98" stroke="black" stroke-width="0.66" stroke-miterlimit="10"/>
<path id='90' d="M503.29 490.32C510.95 488.25 548.89 478.45 582.51 485.44C614.9 492.22 658.51 482.66 670.25 479.64" stroke="black" stroke-width="1.32" stroke-miterlimit="10"/>
<path id='91' d="M390.05 490.78C389.66 487.16 387.34 458.78 405.52 438.96C417.33 426.09 434.14 417.9 457.62 417.23H457.76" stroke="black" stroke-width="0.66" stroke-miterlimit="10"/>
<path id='92' d="M818.23 466C818.23 466 818.23 466 818.18 466C813.82 464.3 809.91 462 805.57 460.75C786.81 454.5 766.7 451.63 746.97 453.95C740.019 454.887 733.128 456.222 726.33 457.95L725.96 457.68C695.52 435.06 653.12 442.33 624.96 447.13C621.96 447.67 619.02 448.13 616.32 448.6C603.65 450.6 584.47 447.53 562.25 443.98C536.25 439.8 503.83 434.62 470.44 435.9C449.31 436.71 433.99 442.77 424.91 453.9C414.55 466.63 415.91 482.44 416.2 485.23C416.2 485.3 416.2 485.36 416.2 485.41" stroke="black" stroke-width="1.32" stroke-miterlimit="10"/>
<path id='93' d="M335.23 448.9C316.7 466.75 335.33 494.57 335.88 495.4" stroke="black" stroke-width="0.66" stroke-miterlimit="10"/>
<path id='94' d="M274.73 473.51C280.766 469.076 287.116 465.085 293.73 461.57C302.73 456.72 313.08 452.03 321.39 450.57L321.74 450.5C321.814 450.507 321.888 450.49 321.95 450.45C323.76 450.01 325.59 449.66 327.45 449.38C330.02 449.047 332.609 448.886 335.2 448.9" stroke="black" stroke-width="2.63" stroke-miterlimit="10"/>
<path id='95' d="M28.5601 461.87C32.6901 458.37 65.8701 431.87 112.68 436.26C130.751 437.994 148.717 440.691 166.5 444.34C182.01 447.34 194.27 449.73 209.5 449.17C240.5 448.04 287.5 452.33 293.76 461.57" stroke="black" stroke-width="0.66" stroke-miterlimit="10"/>
<path id='96' d="M-164.27 521.06C-155.27 516.06 -146.27 511.24 -137.13 506.62C-135.92 506.04 -134.69 505.43 -133.46 504.81L-130.46 503.34H-130.36C-129.36 502.94 -115.13 496.58 -107.68 497.07C-99.81 496.88 -91.87 498.93 -84.04 497.42C-81.39 496.6 -79.4 494.75 -77.35 493.14C-73.3689 489.76 -68.5918 487.45 -63.47 486.43C-58.39 485.3 -53.09 485.43 -47.87 484.99C-31.6617 483.789 -15.5664 481.372 0.279984 477.76C4.27998 476.87 8.17999 475.92 12.1 474.88C12.17 474.88 12.22 474.88 12.26 474.83L14.12 474.34C22.59 472.11 30.84 469.19 39.06 466.24C39.1447 466.237 39.2259 466.205 39.29 466.15C50.74 462.06 62.14 457.93 74.12 455.56C94.55 451.12 115.57 448.5 136.51 449.41C147.12 449.41 157.03 453.03 167.23 455.49C187.78 460.16 208.95 460.3 229.87 461.29C240.32 461.97 250.51 464.75 260.4 468.12C265.207 469.767 269.96 471.593 274.66 473.6C289.15 479.68 303.1 487.16 316.71 494.94" stroke="black" stroke-width="2.63" stroke-miterlimit="10"/>
<path id='97' d="M246.63 491.2C244.68 490.94 192.04 483.28 148.63 484.79C124.02 485.67 108.35 492.43 94.51 498.4C83.51 503.13 74.01 507.22 62.7 506.94C38.17 506.38 8.86998 520.18 6.99998 521.11L2.99998 519.36C-8.19001 515.51 -20.26 516.36 -31.87 516.62C-37.1 516.95 -42.3 517.07 -47.48 517.25H-47.61C-51.14 517.37 -54.61 517.51 -58.18 517.76C-75.64 519.76 -91.82 528.21 -109.35 529.25C-123.98 528.7 -137.84 522.92 -152.42 521.57C-156.334 521.095 -160.279 520.924 -164.22 521.06V521.06C-166.152 521.199 -168.066 521.534 -169.93 522.06C-172.538 522.734 -174.93 524.062 -176.88 525.92C-178.724 529.031 -181.034 531.84 -183.73 534.25C-187.368 537.607 -191.705 540.114 -196.43 541.59C-205.69 544.4 -210.82 546.3 -217.16 552.2C-220.512 555.401 -223.639 558.829 -226.52 562.46" stroke="black" stroke-width="1.32" stroke-miterlimit="10"/>
<path id='98' d="M265.23 491.9C260.07 490.78 160 468.68 132.37 468.68C131.86 468.68 131.37 468.68 130.89 468.68C119.67 469.05 113.17 471.33 105.65 473.97C95.4301 477.57 83.8701 481.64 56.8001 482.68C9.80006 484.49 -47.1299 516.07 -47.6899 516.4" stroke="black" stroke-width="1.32" stroke-miterlimit="10"/>
<path id='99' d="M368.25 445.11C348.47 459.72 360.63 490.04 362.52 494.43" stroke="black" stroke-width="0.66" stroke-miterlimit="10"/>
<path id='100' d="M335.23 448.9C340.16 448.96 345.94 449.48 350.84 449.8C356.83 449.038 362.688 447.46 368.25 445.11" stroke="black" stroke-width="2.63" stroke-miterlimit="10"/>
<path id='101' d="M332 495.43C270.5 498.68 241.1 508.29 201.4 521.29C196.57 522.87 191.6 524.5 186.4 526.17C140.43 541 -19.1801 552.54 -45.6001 554.42" stroke="black" stroke-width="1.32" stroke-miterlimit="10"/>
<path id='102' d="M-45.48 554.38L-45.18 554.31L-41.56 553.45C-26.7 549.78 -11.93 545.79 2.79002 541.63C13.79 538.57 24.79 535.41 35.79 532.3C59.59 525.49 83.41 518.76 107.46 512.93C119.95 509.66 132.7 508.31 145.46 506.66C158.19 504.74 170.75 501.79 183.33 499.16C204.16 494.68 225.33 491.29 246.65 491.16H247.12C251.34 491.16 255.59 491.28 259.82 491.55C261.63 491.65 263.44 491.74 265.25 491.86H265.37C265.37 491.86 265.43 491.86 265.48 491.86C282.55 492.86 299.64 494.15 316.75 494.86C321.83 495.093 326.913 495.257 332 495.35" stroke="black" stroke-width="2.63" stroke-miterlimit="10"/>
<path id='103' d="M0.329956 477.76C-13.55 474.58 -28.34 472 -42.67 472.11C-53.49 472.58 -64.93 473.58 -74.41 479.27C-79 482.05 -83.55 485.44 -89.01 485.93C-94.51 486.07 -99.09 482.14 -104.47 481.26C-111.65 479.33 -119.13 480.61 -126.18 482.35C-140.3 485.79 -154.3 489.97 -168.77 491.46C-183.25 493.22 -197.84 491.39 -211.77 487.25C-225.77 483.33 -239.1 477.43 -252.66 472.14C-259.833 469.28 -267.123 466.74 -274.53 464.52C-263.75 464.85 -219.1 466.52 -194.42 473.41C-185.761 475.851 -176.807 477.086 -167.81 477.08C-153.4 477.08 -139.81 474.08 -125 470.74L-116.8 468.93C-83.65 461.78 -18.8 455.42 12.13 474.88" stroke="black" stroke-width="1.32" stroke-miterlimit="10"/>
<path id='104' d="M14.6799 457.42C19.4799 453.93 56.1899 427.88 84.2899 426.79C100.12 426.19 117.12 428.04 133.58 429.88C148.81 431.55 164.58 433.32 179.51 433.11L185.59 433.04C222.41 432.46 308.51 431.5 321.42 450.57" stroke="black" stroke-width="1.32" stroke-miterlimit="10"/>
<path id='105' d="M653.49 574.62C652.28 573.62 628.09 555.35 564.87 549.34C528.25 545.83 502.08 554.34 476.75 562.53C457.02 568.91 436.58 575.53 411.41 576.32C356.94 578 342.59 600.84 341.34 603" stroke="black" stroke-width="1.32" stroke-miterlimit="10"/>
<path id='106' d="M473 485.26C482.92 486.44 493.13 488.2 503.33 490.32C514.03 492.55 524.73 495.19 535.09 498C551.9 502.62 567.83 507.73 581.36 512.47C584.747 513.65 587.977 514.803 591.05 515.93C601.96 519.93 610.69 523.4 616.26 525.8C619.7 527.28 621.93 528.33 622.72 528.8C623.282 529.134 623.871 529.421 624.48 529.66C627.55 530.96 633.28 532.8 639.87 534.77C651.21 538.14 665.09 541.85 672.5 543.77C675.7 544.63 677.7 545.14 677.7 545.14C677.7 545.14 751.93 556.14 789.24 552.29C802.06 551.2 814.83 549.42 827.64 548.65C846.8 547.42 866.64 550.58 883.04 560.95C888.55 564.18 893.79 568.22 900.13 569.95C904.831 570.989 909.729 570.691 914.27 569.09C915.511 568.671 916.71 568.135 917.85 567.49" stroke="black" stroke-width="2.63" stroke-miterlimit="10" stroke-linecap="round"/>
<path id='107' d="M473.01 485.23V485.26" stroke="black" stroke-width="1.32" stroke-miterlimit="10"/>
<path id='108' d="M332.12 495.43C333.4 495.43 334.65 495.43 335.88 495.43C346.29 495.43 355.02 495.01 362.52 494.43C371.763 493.787 380.957 492.575 390.05 490.8C399.8 488.88 407.26 486.74 416.24 485.26C423.564 484.06 430.969 483.422 438.39 483.35C443.57 483.28 449.39 483.35 456.16 483.75C461.64 484.05 467.28 484.56 473.01 485.23" stroke="black" stroke-width="2.63" stroke-miterlimit="10" stroke-linecap="round"/>
<path id='109' d="M332 495.43H332.14" stroke="black" stroke-width="1.32" stroke-miterlimit="10"/>
<path id='110' d="M19.6499 603.3C33.2099 597.94 134.79 558.77 233.98 553.84C339.13 548.62 395.53 545.04 428.62 526.77C464 507.24 504.47 497.77 591.06 515.93" stroke="black" stroke-width="1.32" stroke-miterlimit="10"/>
<path id='111' d="M539 287.71C538.924 287.738 538.853 287.779 538.79 287.83C537.261 288.793 535.635 289.594 533.94 290.22C522.56 294.31 511.14 287.9 502.36 280.91C496.12 276.4 490.99 270.09 483.58 267.3C476.15 264.91 468.3 264.77 460.58 264.24C452.87 264.08 445.05 262.29 437.43 264.17C429.82 265.77 422.53 268.44 415.14 270.62C409.73 271.99 403.86 274.41 398.36 272.48C381.94 263.26 375.36 246.31 352.57 253.67C345.44 255.9 337.8 259.67 330.28 257.27C319.41 252.93 313.63 241.09 303.04 236.1C282.19 226.39 245.34 251.1 223.59 240.48C220.18 238.81 217.99 235.21 214.09 233.84C204.09 230.15 195.7 238.84 186.02 238.84C180.02 239.32 175.11 235.56 171.93 230.76C170.74 229.25 169.74 227.46 167.84 226.48C165.77 225.72 163.73 226.58 161.99 227.32C160.283 228.184 158.485 228.855 156.63 229.32C150.78 230.32 145.83 225.79 139.98 225.4C136.03 225.03 132.25 226.4 128.49 227.4C117.49 230.4 106.03 234.28 94.4899 232.65C90.6799 232.12 86.9899 230.96 83.1799 230.19C75.502 228.7 67.5665 229.269 60.1799 231.84C52.9499 235.11 44.7799 233.39 37.6299 236.74C32.2199 238.97 27.4799 242.4 22.2599 244.89C20.5399 245.61 18.6399 246.4 16.8999 245.79C6.3399 241 -1.30009 231.43 -11.1001 225.35C-12.7445 224.242 -14.5782 223.446 -16.5101 223C-20.5701 221.84 -24.0701 224.86 -27.4601 226.26C-33.4601 227.63 -36.8701 220.4 -40.5401 216.85C-41.8601 215.44 -43.2101 213.85 -45.2501 213.25C-47.0203 212.618 -48.6239 211.592 -49.9401 210.25C-54.7901 205.75 -64.3601 196.88 -69.5601 205.54C-71.6301 208.91 -72.7601 212.65 -74.4401 216.08C-75.6901 218.54 -77.1301 221.33 -79.9601 222.08C-82.7701 222.48 -86.0201 222.55 -88.2301 224.73C-92.2301 228.91 -94.8701 234.39 -100.51 236.62C-108.4 240.47 -117.46 240.36 -125.87 242.28C-128.54 243.68 -129.65 246.86 -131.74 248.71C-133.11 249.94 -135.11 250.2 -136.96 250.55C-137 250.54 -137.041 250.54 -137.08 250.55C-137.169 250.565 -137.261 250.565 -137.35 250.55" stroke="black" stroke-width="2.63" stroke-miterlimit="10"/>
<path id='112' d="M577.33 292.15C570.25 288.04 563.33 283.44 555.18 282.07C548.89 280.77 544.04 284.65 538.95 287.69" stroke="black" stroke-width="2.63" stroke-miterlimit="10"/>
<path id='113' d="M1009.08 313C902.53 295.66 854.96 306.76 824.08 307.59C818.742 307.767 813.399 307.613 808.08 307.13C797.95 306.13 788.2 303.23 781.08 295.47C775.64 290.11 769.68 284.33 761.88 282.8C754.14 280.61 745.88 283.86 740.61 289.6C736.38 293.38 733.41 299.03 728.16 301.35C726.378 301.975 724.47 302.152 722.603 301.864C720.737 301.576 718.971 300.833 717.46 299.7L712.68 296.43C711.082 295.32 709.411 294.318 707.68 293.43C698.33 290.66 688.34 291.82 678.73 291.8C671 292.06 663.27 292.48 655.56 292.99C636.47 294.26 616.81 295.99 597.79 298.12C594.005 298.738 590.123 298.302 586.57 296.86C583.539 295.6 580.602 294.126 577.78 292.45V292.45L577.36 292.22" stroke="black" stroke-width="2.63" stroke-miterlimit="10"/>
<path id='114' d="M577.33 292.15C578.33 294.4 585.46 309.63 611.56 319.83C628.65 326.47 637.12 321.71 645.32 317.11C651.01 313.91 656.39 310.86 664.4 311.37C674.62 311.98 678.89 315.69 683.4 319.64C687.74 323.4 692.66 327.7 703.48 329.74C704.637 329.96 705.812 330.071 706.99 330.07C715.09 330.07 721.52 324.59 728.28 318.83C738.28 310.33 748.55 301.55 766.06 306.94C797.52 316.65 805.16 310.05 806.57 308.84C807.129 308.295 807.644 307.706 808.11 307.08" stroke="black" stroke-width="1.32" stroke-miterlimit="10"/>
<path id='115' d="M-137.4 250.59C-136.94 253.07 -133.53 268.7 -122.82 269.07C-116.44 269.3 -111.4 261.25 -107.34 254.77C-104.76 250.63 -102.34 246.71 -100.34 246.41C-100.088 246.376 -99.8327 246.4 -99.5918 246.48C-99.351 246.559 -99.1314 246.693 -98.9499 246.87C-96.4699 248.99 -96.1199 256.35 -95.7699 263.45C-95.3799 272.04 -94.9299 280.91 -90.9899 283.02C-90.6726 283.209 -90.3152 283.32 -89.9467 283.344C-89.5783 283.369 -89.2093 283.306 -88.8699 283.16C-85.7899 281.89 -83.4399 274.27 -81.1899 266.91C-79.4499 261.25 -77.6399 255.37 -76.0299 254.98C-75.8699 254.93 -75.6199 254.91 -75.2499 255.26C-73.4099 257.07 -72.5299 261.38 -71.5999 265.94C-70.2099 272.88 -68.7699 280.05 -63.5999 280.54C-59.2099 280.96 -56.5999 276.48 -54.0099 272.16C-51.5999 268.07 -49.3399 264.16 -45.8599 264.87C-45.5365 264.936 -45.2027 264.93 -44.8816 264.854C-44.5604 264.778 -44.2596 264.634 -43.9999 264.43C-41.4999 262.5 -40.9199 254.86 -40.3799 247.43C-39.8899 241.05 -39.3799 234.43 -37.6599 233.78C-37.2699 233.62 -36.7399 233.83 -36.1299 234.38C-33.0399 237.22 -29.9299 245.99 -26.9099 254.47C-22.9099 265.82 -19.0699 276.57 -14.6999 276.57H-14.5399C-10.9599 276.39 -9.98991 272.86 -9.05991 269.45C-7.89991 265.24 -6.80992 261.27 -1.20992 262.73C4.00008 264.1 7.5501 269 10.7101 273.22C14.1401 277.84 17.0901 281.84 21.1301 280.54C23.1199 279.861 25.0471 279.011 26.8901 278C31.7901 275.49 35.6701 273.52 38.8001 279.58C39.8701 281.66 40.9401 284.13 41.9801 286.52C44.4201 292.14 46.5301 297.01 48.5801 297.01H48.6701C49.6201 297.01 50.3601 295.92 50.9901 293.76C52.0801 290.05 51.7801 280.29 51.5001 270.84C51.2201 261.39 50.8701 249.62 52.4301 249.27C52.5701 249.27 53.3401 249.32 55.1201 253.48C58.4701 261.3 61.2101 270.82 63.6201 279.23C67.0001 290.87 69.0001 297.44 71.1001 297.72C71.6601 297.79 72.2101 297.42 72.7001 296.6C74.5101 293.49 74.1601 280.4 73.8401 267.74C73.5601 256.99 73.1901 243.62 74.8401 243.18C74.8401 243.18 75.2301 243.11 76.0201 244.43C79.1401 249.77 81.8101 262.38 84.0201 272.5C86.5701 284.55 87.6601 289.1 89.0201 289.17C89.6301 289.24 90.0201 288.43 90.1801 287.85C91.5301 283.85 90.4201 273.2 89.4401 263.85C88.9501 259.23 88.4401 253.85 88.4401 250.85C88.4401 249.5 88.5501 248.64 88.8301 248.53C88.8301 248.53 89.0901 248.53 89.6401 249.34C91.5501 252.08 93.0601 256.21 94.5201 260.2C96.5201 265.68 98.2801 270.42 100.79 271.33C101.161 271.435 101.55 271.459 101.931 271.402C102.312 271.345 102.676 271.208 103 271C104.16 270.33 105.39 269.49 106.72 268.59C111.72 265.15 117.37 261.25 121.58 265.59C122.207 266.337 122.987 266.941 123.866 267.362C124.746 267.782 125.705 268.01 126.68 268.03C131.35 267.96 136.78 262.44 143.4 255.22C145.72 252.68 147.72 251.52 149.48 251.64C152.02 251.83 153.94 254.64 155.99 257.64C157.75 260.24 159.56 262.91 161.99 264.28C163.18 264.93 164.08 265.07 164.76 264.72C165.89 264.1 166.03 262.24 166.2 260.27C166.37 258.3 166.47 256.53 167.45 256.04C168.17 255.69 169.35 256.04 171 257.13L172.39 258.04C178.66 262.15 184.61 266.04 188.55 264.82C189.357 264.54 190.089 264.077 190.689 263.469C191.289 262.86 191.741 262.121 192.01 261.31C193.073 258.503 193.942 255.626 194.61 252.7C195.92 248 197.48 242 199 242C199.4 242 200.21 242.49 201.3 245.6C203.02 250.45 203.3 255.6 203.62 260.09C203.95 265.03 204.18 268.93 206.2 270.65C206.662 271.011 207.194 271.273 207.761 271.421C208.329 271.569 208.92 271.599 209.5 271.51C213.03 271.14 214.33 268.66 215.5 266.45C216.31 264.89 217.08 263.45 218.5 262.97C219.92 262.49 221.77 262.97 224.35 264.38C229.51 267.12 230.78 270.75 232.01 274.25C233.36 278.08 234.64 281.7 241.01 283.12C248.09 284.68 253.4 273.93 257.68 265.29C260.09 260.39 262.39 255.77 264.22 255.29C264.374 255.243 264.537 255.229 264.697 255.248C264.857 255.267 265.011 255.319 265.15 255.4C267.36 256.75 267.71 263.74 268.1 271.14C268.64 281.29 269.19 291.79 274.37 292.51C278.78 293.09 282.5 286.4 286.37 279.29C290.24 272.18 294.37 264.64 299.04 265.8C303.71 266.96 306.61 272.61 309.8 278.62C312.99 284.63 316.34 290.95 321.57 292.48C326.49 293.92 330.78 289.02 335.31 283.82C340.26 278.13 345.39 272.26 351.57 274.7C356.37 276.58 360.16 280.7 364.15 285.03C370.05 291.41 376.15 298.03 386.02 298.03H386.28C394.82 297.93 400.53 291.76 405.6 286.33C410.42 281.1 414.6 276.6 419.94 278.85C423.496 280.471 426.928 282.349 430.21 284.47C438.08 289.25 447.02 294.68 462.32 296.87C473.93 298.52 480.08 296.38 485 294.66C489.51 293.08 493.06 291.85 499 294.08C503.249 295.768 507.278 297.964 511 300.62C515.13 303.41 518.66 305.8 522.24 305.8C523.979 305.776 525.67 305.225 527.09 304.22C535 299 538.56 288.78 539 287.71" stroke="black" stroke-width="1.32" stroke-miterlimit="10"/>
<path id='116' d="M9.59003 430.76C-12.84 422.1 -63.22 417.94 -111.86 417C-112.56 417 -113.26 417 -113.93 417C-151.5 416.37 -187.74 417.63 -208.93 420.23C-258.58 426.31 -332.43 402.63 -337.22 401.07" stroke="black" stroke-width="1.32" stroke-miterlimit="10"/>
<path id='117' d="M-295.87 0L-296.66 0.35C-299.77 1.81 -311.27 7.71 -315.05 17.35C-319.44 28.5 -316.98 34.49 -288.42 35.55C-268.29 36.3 -253.27 36.55 -245.42 38.74C-242.15 39.74 -240.15 40.96 -239.57 42.82C-237.57 49.04 -261.89 58.15 -289.77 72.96C-317.65 87.77 -313.62 105.3 -276.58 104.54C-247.82 103.96 -217.28 102.24 -205.14 101.54C-201.66 101.33 -199.68 101.19 -199.68 101.19C-191.95 100.51 -183.68 100.05 -175.93 99.33C-125.34 94.71 -77.55 90.33 -68.85 97.96C-65.55 100.86 -63.85 103.81 -63.62 106.96C-63.23 113.02 -68.41 118.9 -73.42 124.58C-79.04 130.95 -84.36 136.98 -81.59 142.88C-78.39 149.64 -50.53 147.88 -20.99 146.06C5.01001 144.44 31.74 142.76 44.18 146.48C44.2134 146.513 44.255 146.537 44.3007 146.55C44.3463 146.562 44.3943 146.562 44.44 146.55C44.6 146.55 44.76 146.67 44.92 146.71C46.6782 147.229 48.3093 148.107 49.71 149.29C53.3852 152.841 56.4796 156.948 58.88 161.46C63.48 169.37 66.8 175.11 90.2 177.82C99.7926 178.915 109.482 178.854 119.06 177.64C127.58 176.76 133.39 176.15 139.47 180.26C142.461 182.409 145.094 185.018 147.27 187.99C150.17 191.71 157.09 194.4 166.68 196.42C166.68 196.42 230.23 204.18 256.12 203.78C282.01 203.38 302.44 206.96 319.39 212.44C336.34 217.92 363.62 241.26 421.28 246.92C478.94 252.58 582.28 262.32 671.28 241.65C681.71 238.45 690.81 234.55 698.07 229.79C698.07 229.79 698.12 229.79 698.14 229.79C793.14 193.79 827.31 201.47 863.48 209.57C880.64 213.4 898.38 217.37 923.23 216.57C962.84 215.34 984.13 208.93 995.04 203.77C1003.61 199.71 1007.74 194.77 1009.13 192.77" stroke="black" stroke-width="2.63" stroke-miterlimit="10"/>
<path id='118' d="M-205.18 101.48C-205.18 101.48 -274.53 123.21 -276.62 146.59C-278.71 169.97 -259.19 168.59 -232.51 167.86C-205.83 167.13 -126 166.42 -59.0902 179.56C7.81984 192.7 115 225 166.64 196.39" stroke="black" stroke-width="0.66" stroke-miterlimit="10"/>
<path id='119' d="M-147.6 559.51C-147.6 559.51 -125.28 541.33 -101.6 543.23C-77.9201 545.13 -66.6001 549.66 -52.7701 547.69C-38.9401 545.72 -14.6701 535.36 2.7899 541.63" stroke="black" stroke-width="0.66" stroke-miterlimit="10"/>
<path id='120' d="M39.31 466.15C35.7858 464.585 32.1845 463.2 28.52 462C24.31 460.58 19.52 459.08 14.63 457.59C-0.480025 453.02 -16.83 448.7 -20.94 447.59L-21.94 447.33C-48.71 440.81 -76.94 435.81 -99.94 435.6C-120.18 435.42 -148.37 438.97 -175.63 442.43C-206.63 446.33 -236 450.05 -253.63 448.51C-285.72 445.73 -333.83 419.63 -337.27 417.75" stroke="black" stroke-width="2.63" stroke-miterlimit="10"/>
<path id='121' d="M581.37 512.47C581.37 512.47 596.79 511.19 620.24 503.11C636.36 497.506 651.891 490.335 666.61 481.7C667.79 481.01 669.02 480.33 670.3 479.64C677.848 475.704 685.607 472.186 693.54 469.1C702.09 465.71 710.26 462.87 716.25 460.9C722.08 458.97 725.82 457.9 725.82 457.9" stroke="black" stroke-width="0.66" stroke-miterlimit="10"/>
<path id='122' d="M555.16 603.3C555.16 603.3 559.25 591.76 578.63 589.09C598.01 586.42 626.42 582.19 640.93 578.2C645.93 576.83 649.75 575.65 653.51 574.74C660.74 572.98 667.63 572.26 681.51 573.28C702.64 574.86 738.39 587.02 754.9 589.6C771.41 592.18 791.22 592.97 808.51 588.16C825.8 583.35 860.64 575.92 887.81 575.16C896.933 574.859 905.912 572.794 914.25 569.08C915.46 568.57 916.64 568.03 917.83 567.48C929.83 561.69 939.91 553.99 949.83 548.99C970.35 538.66 997.54 538.99 1009.03 543.21" stroke="black" stroke-width="2.63" stroke-miterlimit="10" stroke-linecap="round"/>
<path id='123' d="M165.25 380.82C165.225 380.861 165.195 380.898 165.16 380.93C164.16 382.44 153.9 399.09 167.85 412.77" stroke="black" stroke-width="1.32" stroke-miterlimit="10"/>
<path id='124' d="M195.85 379.82C195.85 379.82 180.39 388.34 189.14 412.3" stroke="black" stroke-width="1.32" stroke-miterlimit="10"/>
<path id='125' d="M7 521.11C7 521.11 23.51 528.63 35.75 532.27" stroke="black" stroke-width="0.66" stroke-miterlimit="10"/>
<path id='126' d="M1009.13 543.23V603.3H555.16H341.34H19.65H-185.72H-337.25V593.36V560.76V542.72V519.09V493.17V453.77V417.76V401.04V385.16V357.39V325.74V300.97V253.32V0.360107H-296.66H11.54H890.3H1009.13V104.75V192.79V247.5V312.97V365.47V370.35V413.7V436.38V465.52V476.73V491.87V508.29V537.61V543.23Z" stroke="black" stroke-width="0.66" stroke-miterlimit="10"/>
</svg>
